<svg xmlns="http://www.w3.org/2000/svg" version="1.1" xmlns:xlink="http://www.w3.org/1999/xlink" xmlns:svgjs="http://svgjs.dev/svgjs" width="1500" height="363" viewBox="0 0 1500 363"><g transform="matrix(1,0,0,1,-0.9090909090909918,0.006583949531119515)"><svg viewBox="0 0 396 96" data-background-color="#4d7e3e" preserveAspectRatio="xMidYMid meet" height="363" width="1500" xmlns="http://www.w3.org/2000/svg" xmlns:xlink="http://www.w3.org/1999/xlink"><g id="tight-bounds" transform="matrix(1,0,0,1,0.2400000000000091,-0.0017412097933515724)"><svg viewBox="0 0 395.52 96.00348241958669" height="96.00348241958669" width="395.52"><g><svg viewBox="0 0 540.3091998755319 131.1477669179601" height="96.00348241958669" width="395.52"><g><rect width="11.76819996533045" height="131.1477669179601" x="102.21419371823704" y="0" fill="#ffffff" opacity="1" stroke-width="0" stroke="transparent" fill-opacity="1" class="rect-qz-0" data-fill-palette-color="primary" rx="1%" id="qz-0" data-palette-color="#ffffff"></rect></g><g transform="matrix(1,0,0,1,144.789199875532,0.3262382261640795)"><svg viewBox="0 0 395.52 130.49529046563194" height="130.49529046563194" width="395.52"><g id="textblocktransform"><svg viewBox="0 0 395.52 130.49529046563194" height="130.49529046563194" width="395.52" id="textblock"><g><svg viewBox="0 0 395.52 130.49529046563194" height="130.49529046563194" width="395.52"><g transform="matrix(1,0,0,1,0,0)"><svg width="395.52" viewBox="1.71 -36.23 110.09 36.33" height="130.49529046563194" data-palette-color="#ffffff"><path d="M16.89-27.15L11.23-13.09 9.38-13.09 4.69-22.46 4.69-0.93 2.54-0.63Q2.44-2.34 2.37-4.93 2.29-7.52 2.22-10.52 2.15-13.53 2.1-16.7 2.05-19.87 2-22.8 1.95-25.73 1.88-28.17 1.81-30.62 1.71-32.13L1.71-32.13Q2.05-32.13 2.37-32.18 2.69-32.23 2.93-32.25 3.17-32.28 3.37-32.18 3.56-32.08 3.71-31.74L3.71-31.74 10.3-16.89 15.92-30.96Q16.02-31.2 16.28-31.37 16.55-31.54 16.87-31.69 17.19-31.84 17.53-31.91 17.87-31.98 18.12-31.98L18.12-31.98Q18.16-31.98 18.16-31.84 18.16-31.69 18.26-30.81 18.36-29.93 18.58-28.05 18.8-26.17 19.29-22.73 19.78-19.29 20.53-13.99 21.29-8.69 22.46-0.93L22.46-0.93Q22.27-0.49 21.95-0.34 21.63-0.2 21.36-0.24 21.09-0.29 20.87-0.46 20.65-0.63 20.61-0.93L20.61-0.93 16.89-27.15ZM24.36-4.2L24.36-4.2Q24.36-6.98 25.9-8.25 27.44-9.52 29.93-9.52L29.93-9.52Q30.91-9.52 31.76-9.47 32.61-9.42 33.4-9.23 34.18-9.03 34.93-8.64 35.69-8.25 36.52-7.52L36.52-7.52Q36.52-7.67 36.55-8.13 36.57-8.59 36.57-9.13 36.57-9.67 36.57-10.13 36.57-10.6 36.57-10.79L36.57-10.79Q36.52-11.67 36.52-13.06 36.52-14.45 36.3-15.92 36.08-17.38 35.42-18.7 34.76-20.02 33.3-20.7L33.3-20.7Q32.27-20.7 31.39-20.36 30.52-20.02 29.64-19.63 28.76-19.24 27.88-18.92 27-18.6 25.97-18.6L25.97-18.6Q25.97-19.82 26.73-20.63 27.49-21.44 28.56-21.88 29.64-22.31 30.81-22.46 31.98-22.61 32.86-22.61L32.86-22.61Q33.74-22.46 34.49-22.27 35.25-22.07 35.91-21.48 36.57-20.9 37.13-19.7 37.69-18.51 38.11-16.36 38.52-14.21 38.84-10.91 39.16-7.62 39.35-2.83L39.35-2.83Q39.45-2.2 38.94-1.73 38.43-1.27 37.55-0.95 36.67-0.63 35.57-0.42 34.47-0.2 33.35-0.1 32.22 0 31.2 0.05 30.17 0.1 29.49 0.1L29.49 0.1Q28.61 0.1 27.71-0.2 26.8-0.49 26.05-1.05 25.29-1.61 24.83-2.42 24.36-3.22 24.36-4.2ZM30.71-7.62L30.71-7.62Q28.27-6.93 27.29-5.98 26.32-5.03 26.44-4.15 26.56-3.27 27.59-2.56 28.61-1.86 30.08-1.64 31.54-1.42 33.25-1.88 34.96-2.34 36.52-3.71L36.52-3.71Q35.94-5.13 35.35-5.88 34.76-6.64 34.08-7.03 33.4-7.42 32.57-7.52 31.74-7.62 30.71-7.62ZM43.06-1.32L43.06-1.32Q43.01-2.34 42.84-4.47 42.67-6.59 42.48-9.25 42.28-11.91 42.08-14.89 41.89-17.87 41.72-20.53 41.55-23.19 41.4-25.32 41.25-27.44 41.21-28.47L41.21-28.47Q41.16-28.91 41.13-30 41.11-31.1 41.06-32.35 41.01-33.59 40.99-34.69 40.96-35.79 40.96-36.23L40.96-36.23Q41.65-36.23 42.18-35.96 42.72-35.69 43.06-35.06L43.06-35.06Q43.16-34.03 43.28-32.15 43.4-30.27 43.55-27.83 43.7-25.39 43.87-22.61 44.04-19.82 44.18-17.09L44.18-17.09Q44.33-17.33 44.48-17.53 44.62-17.72 44.67-17.77L44.67-17.77Q45.21-18.36 45.94-19.14 46.67-19.92 47.48-20.75 48.29-21.58 49.09-22.39 49.9-23.19 50.56-23.85 51.22-24.51 51.66-24.9 52.09-25.29 52.19-25.29L52.19-25.29 54.05-24.37Q53.22-23.63 52.14-22.66 51.07-21.68 50.04-20.58 49.02-19.48 48.07-18.29 47.11-17.09 46.53-15.92L46.53-15.92Q46.53-15.87 46.5-15.7 46.48-15.53 46.48-15.43L46.48-15.43Q46.48-15.38 46.5-15.21 46.53-15.04 46.53-14.99L46.53-14.99 57.81-1.86Q57.81-1.81 57.83-1.66 57.86-1.51 57.86-1.42L57.86-1.42Q57.86-0.49 56.88 0L56.88 0 44.67-14.06Q44.62-14.11 44.55-14.23 44.48-14.36 44.38-14.5L44.38-14.5 44.92-5.03Q44.92-4.79 44.94-4.1 44.97-3.42 44.99-2.61 45.01-1.81 45.04-1.1 45.06-0.39 45.06-0.15L45.06-0.15Q44.43-0.15 43.89-0.42 43.35-0.68 43.06-1.32ZM62.74-3.96L62.74-3.96Q63.62-3.96 64.37-3.61 65.13-3.27 65.86-2.86 66.59-2.44 67.35-2.12 68.11-1.81 68.99-1.81L68.99-1.81Q70.01-1.81 71.11-2.17 72.21-2.54 73.14-3.2 74.06-3.86 74.65-4.81 75.24-5.76 75.24-6.88L75.24-6.88Q75.29-7.23 75.26-7.71 75.24-8.2 74.94-8.72 74.65-9.23 73.97-9.69 73.28-10.16 71.99-10.4 70.7-10.64 68.74-10.67 66.79-10.69 63.91-10.3L63.91-10.3Q63.18-10.3 62.49-10.72 61.81-11.13 61.27-11.74 60.73-12.35 60.39-13.06 60.05-13.77 60.05-14.4L60.05-14.4Q60.05-16.31 60.86-17.5 61.66-18.7 62.93-19.41 64.2-20.12 65.76-20.41 67.33-20.7 68.94-20.7L68.94-20.7Q69.67-20.7 70.62-20.63 71.57-20.56 72.38-20.24 73.19-19.92 73.75-19.24 74.31-18.55 74.31-17.33L74.31-17.33Q74.21-16.5 74.04-16.33 73.87-16.16 73.55-16.43 73.23-16.7 72.8-17.19 72.36-17.68 71.75-18.14 71.14-18.6 70.28-18.85 69.43-19.09 68.35-18.85L68.35-18.85Q67.23-18.85 66.11-18.63 64.98-18.41 64.08-17.87 63.18-17.33 62.61-16.41 62.05-15.48 62.05-14.06L62.05-14.06Q62.05-13.33 62.71-13.06 63.37-12.79 64.47-12.79 65.57-12.79 66.96-12.87 68.35-12.94 69.82-12.94 71.28-12.94 72.65-12.72 74.02-12.5 75.07-11.84 76.12-11.18 76.7-9.96 77.29-8.74 77.14-6.79L77.14-6.79Q77.14-5.37 76.34-4.1 75.53-2.83 74.28-1.88 73.04-0.93 71.53-0.39 70.01 0.15 68.6 0L68.6 0Q68.01-0.05 67.01-0.32 66.01-0.59 65.06-1.07 64.1-1.56 63.42-2.27 62.74-2.98 62.74-3.96ZM82.46 0.1L81.73-18.95Q82.31-18.95 82.73-18.99 83.14-19.04 83.44-18.51L83.44-18.51Q83.58-16.31 83.78-14.04 83.97-11.77 84.17-9.47 84.37-7.18 84.44-4.86 84.51-2.54 84.46-0.34L84.46-0.34Q84.46-0.05 84.32 0.02 84.17 0.1 83.9 0.07 83.63 0.05 83.27 0.02 82.9 0 82.46 0.1L82.46 0.1ZM78.9-27.69L78.9-27.69Q78.9-28.03 78.95-28.44 78.99-28.86 79.16-29.2 79.34-29.54 79.6-29.79 79.87-30.03 80.26-30.03L80.26-30.03Q80.85-30.03 81.44-29.98 82.02-29.93 82.56-29.76 83.1-29.59 83.44-29.22 83.78-28.86 83.78-28.17L83.78-28.17Q83.78-27 82.9-26.1 82.02-25.2 80.75-25.2L80.75-25.2Q79.78-25.2 79.34-25.95 78.9-26.71 78.9-27.69ZM81.73-27.44L81.73-27.44Q81.58-27.44 81.58-27.2 81.58-26.95 81.73-26.95L81.73-26.95Q81.92-26.95 81.92-27.2 81.92-27.44 81.73-27.44ZM86.46-19.04L86.46-19.04Q87.05-19.04 87.73-18.75 88.42-18.46 88.71-17.58L88.71-17.58Q89.1-19.24 89.9-20.26 90.71-21.29 91.76-21.68 92.81-22.07 93.96-21.95 95.1-21.83 96.11-21.24 97.11-20.65 97.86-19.73 98.62-18.8 98.91-17.58L98.91-17.58Q99.45-19.09 100.35-20.39 101.26-21.68 102.36-22.56 103.45-23.44 104.65-23.78 105.85-24.12 106.9-23.75 107.95-23.39 108.75-22.19 109.56-21 109.9-18.75L109.9-18.75Q110-18.12 110.14-16.87 110.29-15.63 110.46-14.06 110.63-12.5 110.85-10.77 111.07-9.03 111.24-7.47 111.41-5.91 111.56-4.66 111.71-3.42 111.8-2.83L111.8-2.83Q111.8-2.34 111.76-1.76 111.71-1.17 111.54-0.76 111.36-0.34 111-0.22 110.63-0.1 109.9-0.63L109.9-0.63Q109.9-1.22 109.75-2.54 109.61-3.86 109.46-5.59 109.31-7.32 109.09-9.25 108.87-11.18 108.65-12.89 108.43-14.6 108.29-15.92 108.14-17.24 108-17.77L108-17.77Q107.26-20.02 106.46-20.9 105.65-21.78 104.85-21.68 104.04-21.58 103.31-20.65 102.58-19.73 101.99-18.31 101.4-16.89 100.89-15.16 100.38-13.43 100.11-11.72 99.84-10.01 99.77-8.5 99.69-6.98 99.94-6.01L99.94-6.01 98.03-5.62Q98.18-10.3 97.72-13.31 97.25-16.31 96.45-17.92 95.64-19.53 94.62-19.85 93.59-20.17 92.59-19.43 91.59-18.7 90.76-16.99 89.93-15.28 89.51-12.87 89.1-10.45 89.2-7.42 89.29-4.39 90.22-0.93L90.22-0.93 88.37-0.93Q88.37-0.93 88.24-1.86 88.12-2.78 87.95-4.22 87.78-5.66 87.59-7.5 87.39-9.33 87.19-11.21 87-13.09 86.8-14.82 86.61-16.55 86.46-17.77L86.46-17.77Q86.46-17.92 86.46-18.43 86.46-18.95 86.46-19.04Z" opacity="1" transform="matrix(1,0,0,1,0,0)" fill="#ffffff" class="wordmark-text-0" data-fill-palette-color="primary" id="text-0"></path></svg></g></svg></g></svg></g></svg></g><g transform="matrix(1,0,0,1,0,0.3262382261640795)"><svg viewBox="0 0 71.40738752627252 130.49529046563194" height="130.49529046563194" width="71.40738752627252"><g><svg xmlns="http://www.w3.org/2000/svg" xmlns:xlink="http://www.w3.org/1999/xlink" version="1.1" x="0" y="0" viewBox="29.640379159777563 12.347 41.77236687646001 76.33800000000001" enable-background="new 0 0 100 100" xml:space="preserve" height="130.49529046563194" width="71.40738752627252" class="icon-icon-0" data-fill-palette-color="accent" id="icon-0"><path d="M52.243 49.698l-2.103-1.056c-7.676-3.734-11.993-7.055-14.417-11.032h11.132c0.829 0 1.5-0.671 1.5-1.5s-0.671-1.5-1.5-1.5H34.288c-0.604-1.644-0.989-3.419-1.232-5.381h28.729c0.828 0 1.5-0.671 1.5-1.5s-0.672-1.5-1.5-1.5H32.789c-0.161-2.783-0.154-5.921-0.144-9.545l0.005-2.836c0-0.829-0.671-1.5-1.5-1.5s-1.5 0.671-1.5 1.5l-0.005 2.828c-0.023 8.455-0.034 14.669 2.172 19.904 0.024 0.074 0.054 0.144 0.088 0.212 2.36 5.421 7.158 9.798 16.905 14.54l2.102 1.057c12.159 5.916 15.889 10.794 17.018 18.89H49.736c-0.829 0-1.5 0.672-1.5 1.5s0.671 1.5 1.5 1.5h18.496c0.125 1.876 0.167 3.92 0.178 6.166H32.643c0.01-2.253 0.052-4.292 0.175-6.166h9.584c0.829 0 1.5-0.672 1.5-1.5s-0.671-1.5-1.5-1.5h-9.288c0.315-2.284 0.833-4.309 1.689-6.166h25.41c0.828 0 1.5-0.672 1.5-1.5s-0.672-1.5-1.5-1.5H36.594c1.53-2.047 3.647-3.94 6.58-5.855 0.694-0.452 0.889-1.382 0.437-2.076-0.454-0.694-1.383-0.889-2.076-0.436-11.954 7.802-11.931 15.903-11.89 30.611l0.005 2.828c0 0.828 0.671 1.5 1.5 1.5s1.5-0.672 1.5-1.5l-0.005-2.837c-0.001-0.307-0.001-0.604-0.002-0.903H68.41c0 0.3-0.001 0.596-0.002 0.902l-0.005 2.838c0 0.828 0.672 1.5 1.5 1.5s1.5-0.672 1.5-1.5l0.005-2.829C71.457 66.984 71.479 59.057 52.243 49.698z" fill="#ffffff" data-fill-palette-color="accent"></path><path d="M37.95 20.847h30.429c0.01 0 0.019-0.002 0.028-0.003-0.03 5.758-0.271 10.111-1.602 13.766h-8.949c-0.828 0-1.5 0.671-1.5 1.5s0.672 1.5 1.5 1.5h7.515c-1.404 2.294-3.451 4.364-6.434 6.45-0.679 0.475-0.845 1.41-0.37 2.089 0.292 0.417 0.758 0.64 1.23 0.64 0.297 0 0.597-0.088 0.858-0.271 10.814-7.563 10.793-15.476 10.752-29.841l-0.005-2.83c0-0.829-0.672-1.5-1.5-1.5s-1.5 0.671-1.5 1.5l0.005 2.838c0.001 0.402 0.001 0.775 0.002 1.165-0.011 0-0.021-0.003-0.031-0.003H37.95c-0.829 0-1.5 0.671-1.5 1.5S37.122 20.847 37.95 20.847z" fill="#ffffff" data-fill-palette-color="accent"></path></svg></g></svg></g></svg></g><defs></defs></svg><rect width="395.52" height="96.00348241958669" fill="none" stroke="none" visibility="hidden"></rect></g></svg></g></svg>