<svg xmlns="http://www.w3.org/2000/svg" xmlns:xlink="http://www.w3.org/1999/xlink" viewBox="0 0 141.73 167.43"><defs><style>.a{fill:none;}.b{fill:#fff;}</style><symbol id="a" viewBox="0 0 141.73 113.4"><rect class="a" width="141.73" height="45.37"/><rect class="a" y="51.04" width="141.73" height="62.36"/><rect class="a" y="45.39" width="141.73" height="5.65"/><path class="b" d="M73.18,40.34h0a.12.12,0,0,0-.11.11l0,1.72a.11.11,0,0,0,.1.11c.83.08,5,.68,5.1,4.49A3.21,3.21,0,0,1,76.6,49.6a4,4,0,0,1-.44.27h0a4.16,4.16,0,0,1-.47.24h0c-.16.07-.33.15-.5.21h0l-.52.19h0c-.83.31-1.72.54-2.54.76l-.06,0v0h0v-.7h0l.19-12.39v-.33h0l0-2.68a.12.12,0,0,0,0-.09l-.06,0h0a3.16,3.16,0,0,1-2.58,0h0a.07.07,0,0,0-.06,0,.11.11,0,0,0,0,.09l0,2.69h0v.65h0l0,1.79a15.56,15.56,0,0,0-5.79,1.84c-1.75.84-3,3.28-3.27,4.74-.08.44-.15.89,0,1.11a.42.42,0,0,0,.31.13h0c1.07,0,4-2,4.7-2.66a19.71,19.71,0,0,1,4-2.84l.11,8.11v.55h0V52a15.1,15.1,0,0,0-1.61.57h0l-.27.12,0,0-.24.12-.06,0-.21.1-.08,0-.19.11-.09,0-.17.1-.1.06-.16.1-.1.06-.14.1-.1.08-.13.09-.11.08-.12.1-.1.08-.11.1-.11.09-.1.09-.1.1-.09.09-.1.11-.08.09a.52.52,0,0,0-.1.11l-.07.09-.1.12-.06.08-.09.13-.06.08-.09.13a.41.41,0,0,1,0,.09l-.08.13,0,.08-.08.15,0,.08a1,1,0,0,1-.07.15l0,.07-.06.17,0,.06-.06.18a.14.14,0,0,1,0,.06c0,.06,0,.13,0,.19v0a2.25,2.25,0,0,0,0,.22v0a4.31,4.31,0,0,0-.09,1,4.7,4.7,0,0,0,.77,2.8,4.12,4.12,0,0,0,.32.41l0,0,.1.11a.6.6,0,0,1,.08.08h0a8,8,0,0,0,3.66,1.79l.29.08,1.09.27.12,5.53h0a5.78,5.78,0,0,0-1,.66A2.84,2.84,0,0,0,67.84,72a2.25,2.25,0,0,0,.93,2,2.35,2.35,0,0,0,.61.3h0a.09.09,0,0,0,.07,0l0,0a.13.13,0,0,0,0-.06A3.59,3.59,0,0,1,70,71.87c.58-.89,1.71-1.26,3.21-1.74l.07,0,.1,0,.06,0h0a7.51,7.51,0,0,0,2.9-1.57,3.1,3.1,0,0,0,.9-2.22,3.5,3.5,0,0,0-1.78-3.07,10,10,0,0,0-2.36-1.06h0l-.18-.06-.08,0h0a.07.07,0,0,0-.06,0h0a.09.09,0,0,0,0,.07h0l0,2h0s0,0,0,.05h0a.1.1,0,0,0,0,0,4.3,4.3,0,0,1,2,1.37,1.72,1.72,0,0,1,.25.58,1.1,1.1,0,0,1-.45,1.25,11.18,11.18,0,0,1-2.75,1.24l0-2.72.22-11.06a.08.08,0,0,0,0,0s0,0,0,0h0a.06.06,0,0,0-.06,0h0l-.57.17c-.38.13-.73.25-1,.38l-.31.13a.08.08,0,0,0,0,0h0a.14.14,0,0,0,0,.06l0,2,.08,3.62c-.22-.06-.5-.15-.82-.27a4.56,4.56,0,0,1-2.3-1.68,2,2,0,0,1-.28-1.12A2.79,2.79,0,0,1,67,56.64a4.19,4.19,0,0,1,1.2-1.21,12.6,12.6,0,0,1,4-1.62l1.4-.34h0l.85-.21a18.32,18.32,0,0,0,2.16-.64h0l.31-.12h0l.29-.12,0,0,.28-.13,0,0a2.44,2.44,0,0,0,.28-.14l0,0,.26-.15,0,0,.26-.15,0,0,.26-.16,0,0,.24-.18,0,0,.24-.2h0l.26-.23a5.12,5.12,0,0,0,.55-.59h0a5.55,5.55,0,0,0,1.19-3.54C81.37,42.44,76.47,40.57,73.18,40.34Zm-9.85,4.77a.61.61,0,0,1-.63-.63.62.62,0,0,1,.63-.64.61.61,0,0,1,.62.64A.6.6,0,0,1,63.33,45.11Z"/><path class="b" d="M22.89,81.32A.91.91,0,0,0,23,82a.88.88,0,0,0,.59.38l.1,0A2.49,2.49,0,0,0,24.12,84a2.65,2.65,0,0,0,2.19,1.07h0a4.17,4.17,0,0,0,.84-.11,2.51,2.51,0,0,1,.48-.08l.12,0a4.88,4.88,0,0,0,1.19.17,2.33,2.33,0,0,0,.87-.15l.1,0a2.61,2.61,0,0,1,.73-.2.37.37,0,0,1,.15,0,1.12,1.12,0,0,0,.31,0,.89.89,0,0,0,.56-.2A.88.88,0,0,0,32,83.7a1.56,1.56,0,0,0-.13-.38,2.52,2.52,0,0,0,1-1.35.88.88,0,0,0,.76-1.18,1.72,1.72,0,0,0-1-.94,2,2,0,0,0-2-1.24,6.74,6.74,0,0,0-1.11.14,4.25,4.25,0,0,1-.79.11.54.54,0,0,1-.24,0,6.21,6.21,0,0,1-.1-1.19v-.1a2.11,2.11,0,0,1,.25-1.37,1.48,1.48,0,0,1,.95-.23h.06l.59,0,.75,0a2.55,2.55,0,0,0,2.77-1.93,4.43,4.43,0,0,0,.14-.6,5.94,5.94,0,0,1,.72,0c.62,0,1,.14,1,.29s.08.22-.24.91a12.72,12.72,0,0,1-1,1.67c-.21.33-.39.62-.52.86a.87.87,0,0,0,.3,1.15,12.12,12.12,0,0,1,2.22,1.78c.35.39.33.91.25,1.73l0,.12a.88.88,0,0,0,.87,1h0a2.47,2.47,0,0,0,.5,1.12,2.69,2.69,0,0,0,2.15,1h0a4.2,4.2,0,0,0,.84-.1,3.75,3.75,0,0,1,.52-.07,2.94,2.94,0,0,1,.54.08A4.32,4.32,0,0,0,43,85h0a3.71,3.71,0,0,0,1.23-.29,1.89,1.89,0,0,1,.58-.17.4.4,0,0,1,.15,0,1,1,0,0,0,.32.06.86.86,0,0,0,.57-.21.88.88,0,0,0,.28-.85,1.63,1.63,0,0,0-.13-.37,2.67,2.67,0,0,0,1-1.48h0a.91.91,0,0,0,.61-.33.86.86,0,0,0,.12-.86,1.7,1.7,0,0,0-1-.94,2.28,2.28,0,0,0-2.12-1.22h0a5.76,5.76,0,0,0-1.63.34c-.21.06-.49.15-.58.16h-.06a1.14,1.14,0,0,1-1.14-.75,3.13,3.13,0,0,1,1.23-2.9h0a3.47,3.47,0,0,0,1.77-3C44,69.87,40.74,68.3,38.1,67l-.34-.16-.34-.16a7.72,7.72,0,0,1-.71-.35,5.19,5.19,0,0,1,1.15-1.09c.77-.59,1.77-1.23,2.81-1.89a4.32,4.32,0,0,1,2.06-.87h0a1.35,1.35,0,0,1,1,.52.84.84,0,0,0,.64.29h0A.88.88,0,0,0,45.1,63c.45-.56.76-.63,1-.63h.15a19.59,19.59,0,0,1,2.37.19h.11a.88.88,0,0,0,.61-.25.75.75,0,0,0,.21-.34V83.7a.87.87,0,0,0,.87.87h.05l16.45-.9a7.47,7.47,0,0,0,2.47.91v-.67A6.35,6.35,0,0,1,67.08,83l-16.67.91h0a.22.22,0,0,1-.15-.06.21.21,0,0,1-.07-.15V60.63a.21.21,0,0,1-.15.07h-.27a.93.93,0,0,0-.23,0,.72.72,0,0,0-.44.22.93.93,0,0,0-.17.74.21.21,0,0,1-.06.18.22.22,0,0,1-.15.06h0a18.43,18.43,0,0,0-2.45-.2h-.15a1.92,1.92,0,0,0-1.49.88.26.26,0,0,1-.16.09h0a.24.24,0,0,1-.16-.07,2,2,0,0,0-1.51-.75h0a5.22,5.22,0,0,0-2.41,1C38.59,63.92,36,65.58,36,66.47c0,.31.71.63,1.18.84l.31.15.35.16c2.49,1.19,5.6,2.68,5.77,4.61a2.86,2.86,0,0,1-1.5,2.46,3.79,3.79,0,0,0-1.48,3.58,1.77,1.77,0,0,0,1.77,1.25h.09a4.46,4.46,0,0,0,.74-.19A5.31,5.31,0,0,1,44.65,79h0a1.64,1.64,0,0,1,1.66,1.11,1.18,1.18,0,0,1,.84.64.25.25,0,0,1,0,.22.21.21,0,0,1-.17.08H46.8c-.21,0-.26.08-.38.46a2,2,0,0,1-1.28,1.4.56.56,0,0,1,0,.12,1.72,1.72,0,0,1,.41.68.27.27,0,0,1-.08.22.24.24,0,0,1-.14,0l-.08,0a1,1,0,0,0-.39-.07,2.31,2.31,0,0,0-.82.21,2.94,2.94,0,0,1-1,.24h0a3.5,3.5,0,0,1-.66-.09,4,4,0,0,0-.67-.09,3.61,3.61,0,0,0-.64.08,4.17,4.17,0,0,1-.71.08h0a2,2,0,0,1-1.64-.75,1.93,1.93,0,0,1-.38-1.44l-.5.06H37.6a.21.21,0,0,1-.21-.24v-.11A2.72,2.72,0,0,0,37,79.62a12.78,12.78,0,0,0-2.36-1.89.23.23,0,0,1-.07-.29c.12-.22.3-.5.5-.82.63-1,1.59-2.46,1.26-3.2-.25-.56-1-.68-1.63-.68a6.17,6.17,0,0,0-1.31.16,5.19,5.19,0,0,1-.17,1,1.89,1.89,0,0,1-2.15,1.46q-.36,0-.72,0l-.62,0h-.06a1.88,1.88,0,0,0-1.42.42,2.49,2.49,0,0,0-.43,1.85v.1c0,.7,0,1.44.28,1.64a1,1,0,0,0,.71.22,5.16,5.16,0,0,0,.92-.12,5.47,5.47,0,0,1,1-.12,1.44,1.44,0,0,1,1.47,1.09A1.16,1.16,0,0,1,33,81a.2.2,0,0,1,0,.21.19.19,0,0,1-.17.08h-.15c-.22,0-.26.07-.39.42A1.91,1.91,0,0,1,31,83s0,.09,0,.13a1.32,1.32,0,0,1,.41.68.21.21,0,0,1-.07.21.24.24,0,0,1-.14,0l-.08,0a1.22,1.22,0,0,0-.38-.07,2.76,2.76,0,0,0-1,.26l-.1,0a1.76,1.76,0,0,1-.64.1,3.83,3.83,0,0,1-1-.14,1.06,1.06,0,0,0-.31,0,2.73,2.73,0,0,0-.61.09,4.18,4.18,0,0,1-.71.09h0a2,2,0,0,1-1.65-.78,2,2,0,0,1-.23-1.72l-.73-.14a.21.21,0,0,1-.15-.09.19.19,0,0,1,0-.18c.66-2.54-.14-7.07-.61-9.78l0-.08a.21.21,0,0,1,.06-.18.2.2,0,0,1,.16-.07h0l.84.08a12.4,12.4,0,0,0,1.27.1c1.21,0,1.95-.47,2.29-2.87a3.42,3.42,0,0,1-2.71-2c-.78-2,.34-4.69,1.43-7.34l0-.06.24-.56c1-2.49,1.93-4.65.43-6.87a1.66,1.66,0,0,0-1.06-.73h-.05c-.23,0-.29.11-.32.17-.25.54.81,2.19,1.31,3A1.63,1.63,0,0,1,27,56a1.06,1.06,0,0,1-.53.48,2.25,2.25,0,0,1-1.27,2.07,3.14,3.14,0,0,1-.37,2,.66.66,0,0,1-.53.32.77.77,0,0,1-.54-.29C21.88,58.44,20,53.09,23,50.07a3.43,3.43,0,0,1,2.46-1,3.93,3.93,0,0,1,3.13,1.48c2.2,3,1.12,5.73-.25,9.24l-.37,1c-.62,1.56-1.07,3.62-.47,4.71a1.41,1.41,0,0,0,1,.73,1.33,1.33,0,0,0,.28,0c1.42,0,2.44-2.24,2.91-4.27-.3,0-.59.08-.82.09h0a.26.26,0,0,1-.17-.07.25.25,0,0,1,0-.19A24.66,24.66,0,0,0,30.5,56c-.35-3.35-.7-6.81.5-8.9a1.65,1.65,0,0,1,.2-1.45A1.53,1.53,0,0,1,32.43,45a1.44,1.44,0,0,1,1.18.66l.46,0c.37,0,.82-.08,1.25-.08.81,0,1.31.16,1.56.49a.92.92,0,0,1,.17.57,5.89,5.89,0,0,1,1-.09,3.92,3.92,0,0,1,1.74.35c.67.34.32,1.75.23,2a1.85,1.85,0,0,1-.51.75,4.61,4.61,0,0,0,1.38.28.86.86,0,0,0,.75-.28,1.8,1.8,0,0,0-.07-1.49.22.22,0,0,1,.09-.25l.12,0a.24.24,0,0,1,.14.05,2.07,2.07,0,0,1,.77,2.25,2,2,0,0,1-1.91,1.16A2.83,2.83,0,0,1,39.75,51a1.34,1.34,0,0,1-.25.83,4.48,4.48,0,0,1,.94.44,3.69,3.69,0,0,0,1.18.49h.15a3.76,3.76,0,0,0,2.48-1.68c.26-.54,0-1-.34-1.42a1.78,1.78,0,0,1-.45-1.31,2.12,2.12,0,0,1,1-1.29,1.26,1.26,0,0,1,.29-.71.88.88,0,0,1,.6-.35h0a.21.21,0,0,1,.22.21.2.2,0,0,1,0,.11.16.16,0,0,0,0,.13s0,.06.09.06h0a3.24,3.24,0,0,1,2.14.22,1.29,1.29,0,0,1,.57-.12.88.88,0,0,1,.71.28.21.21,0,0,1-.12.35.54.54,0,0,0-.33.21.23.23,0,0,0,0,.2,2.12,2.12,0,0,1-.13,1.5,2.07,2.07,0,0,1,.27.37,1.16,1.16,0,0,1,.76.65.21.21,0,0,1,0,.19.2.2,0,0,1-.17.09.35.35,0,0,0-.35.31,1.92,1.92,0,0,1-1.13,1.31c.05.18.12.46.16.59s0,.16,0,.18a.19.19,0,0,1-.05.19.2.2,0,0,1-.16.07h0l-.21,0a.84.84,0,0,0-.63.25,1.15,1.15,0,0,0-.23.88.22.22,0,0,1-.16.22,3,3,0,0,0-2,2.17h.26a.22.22,0,0,1,.21.22A2,2,0,0,1,44.79,58a11.08,11.08,0,0,0,1.47.13c.51,0,.61-.09.63-.12s0-.31-.12-.51a1.56,1.56,0,0,1,.91-2.3,1.18,1.18,0,0,1,1-.67h.09a.23.23,0,0,1,.18.13.22.22,0,0,1,0,.22.09.09,0,0,0,0,.1s0,0,.08.06a1.8,1.8,0,0,1,1,.33.82.82,0,0,1,.26,0v-.55a.2.2,0,0,1,0-.11.21.21,0,0,1,.19-.11h2.25l2-3.13a.3.3,0,0,1,.13-.09,31.22,31.22,0,0,1,8.27-1.21,19,19,0,0,1,5.61.77v-.68a20.3,20.3,0,0,0-5.61-.75,32,32,0,0,0-8.44,1.24.86.86,0,0,0-.5.37L52.29,54H50.4a.87.87,0,0,0-.82.58h0a.64.64,0,0,0,0-.07.87.87,0,0,0-.72-.54h-.16a2.06,2.06,0,0,1-.77-.12.89.89,0,0,0,.64-.27.91.91,0,0,0,.21-.79l-.05-.2a.62.62,0,0,1,0-.1,2.52,2.52,0,0,0,1-1.32.84.84,0,0,0,.45-.31.87.87,0,0,0,.15-.76,1.67,1.67,0,0,0-.92-1,2.72,2.72,0,0,0,.09-1.22.81.81,0,0,0,.41-.48.84.84,0,0,0-.14-.82A1.51,1.51,0,0,0,48.44,46a2,2,0,0,0-.55.08,3.83,3.83,0,0,0-1.4-.26l-.34,0a.89.89,0,0,0-.75-.44h-.1a1.6,1.6,0,0,0-1,.58,1.94,1.94,0,0,0-.38.76,2.83,2.83,0,0,0-1,1.2,4.31,4.31,0,0,0-.51-.56.86.86,0,0,0-.59-.24.92.92,0,0,0-.48.14,1.08,1.08,0,0,0-.46.68,1.67,1.67,0,0,0-.75-1.72,4.58,4.58,0,0,0-2-.42,4.7,4.7,0,0,0-.53,0,1.25,1.25,0,0,0-.15-.24,2.53,2.53,0,0,0-2.08-.75c-.46,0-.93,0-1.31.08h-.12a2.06,2.06,0,0,0-1.46-.63,2.18,2.18,0,0,0-1.77,1A2.32,2.32,0,0,0,30.3,47a9.13,9.13,0,0,0-.78,3.8,7.23,7.23,0,0,0-.41-.61,4.62,4.62,0,0,0-3.66-1.75,4.06,4.06,0,0,0-2.92,1.17,6.77,6.77,0,0,0-1.64,6.11A11,11,0,0,0,23.32,61a1.35,1.35,0,0,0,1,.51,1,1,0,0,0,.36-.06c-.7,2-1.13,3.88-.5,5.46a4.1,4.1,0,0,0,2.57,2.27c-.35,1.69-.93,1.69-1.54,1.69A11.54,11.54,0,0,1,24,70.8l-.85-.08h-.07a.88.88,0,0,0-.65.28.87.87,0,0,0-.21.74v.08C22.73,74.47,23.52,78.91,22.89,81.32ZM30,61.72a.88.88,0,0,0,.2.73.87.87,0,0,0,.62.29c-.54,1.72-1.33,2.88-2,2.88l-.16,0a.75.75,0,0,1-.59-.4c-.39-.73-.19-2.4.51-4.16h0l.37-1c.38-1,.74-1.91,1-2.82A18.35,18.35,0,0,1,30,61.72Z"/><path class="b" d="M41.55,74c.79-.55,1.17-1.13,1.12-1.71-.11-1.44-2.76-2.73-4.89-3.76-.84-.41-1.63-.8-2.23-1.17a.82.82,0,0,1-.31-.33,8.24,8.24,0,0,0-1.72,4.79l0,.14a6,6,0,0,1,1.12-.11c1.29,0,2.17.43,2.48,1.21.49,1.25-.58,2.88-1.37,4.08l-.12.18c1.17.81,3,2.19,2.71,3.92l.52,0,.18,0h0a.21.21,0,0,1,.21.22.28.28,0,0,1,0,.09A1.65,1.65,0,0,0,39.31,83a1.12,1.12,0,0,0,.95.46,1.85,1.85,0,0,0,.87-.24,1.33,1.33,0,0,1-.08-.67.2.2,0,0,1,.13-.17l.08,0a.24.24,0,0,1,.14,0l.35.29a2.43,2.43,0,0,0,1.4.78h.06a1.59,1.59,0,0,0,.95-.53.59.59,0,0,0,.17-.3c0-.3-.66-.59-1.11-.8l-.07,0a.21.21,0,0,1-.13-.2.23.23,0,0,1,.14-.2,1.72,1.72,0,0,1,.6-.1A1.62,1.62,0,0,1,45.1,82a1.19,1.19,0,0,0,.53-1.2,1,1,0,0,0-.89-1h-.07a3.4,3.4,0,0,0-1,.24,4,4,0,0,1-1.26.27h0a2.43,2.43,0,0,1-2.51-1.78A4.4,4.4,0,0,1,41.55,74Z"/><path class="b" d="M107.11,71.88a6,6,0,0,1,1.12.11v-.14a8.38,8.38,0,0,0-1.72-4.79.92.92,0,0,1-.32.33c-.6.37-1.39.76-2.23,1.17-2.13,1-4.78,2.32-4.89,3.76,0,.58.33,1.16,1.12,1.71a4.4,4.4,0,0,1,1.72,4.54,2.44,2.44,0,0,1-2.51,1.78h0a4,4,0,0,1-1.25-.27,3.46,3.46,0,0,0-1-.24H97a1,1,0,0,0-.89,1,1.17,1.17,0,0,0,.53,1.2A1.59,1.59,0,0,1,98,81.34a1.66,1.66,0,0,1,.59.1.22.22,0,0,1,.14.2.21.21,0,0,1-.13.2l-.07,0c-.45.21-1.07.5-1.1.8,0,0,0,.14.16.3a1.59,1.59,0,0,0,1,.53h.06a2.43,2.43,0,0,0,1.4-.78l.35-.29a.24.24,0,0,1,.14,0l.08,0a.2.2,0,0,1,.13.17,1.44,1.44,0,0,1-.07.67,1.81,1.81,0,0,0,.86.24,1.12,1.12,0,0,0,1-.46,1.64,1.64,0,0,0,.06-1.54.26.26,0,0,1,0-.21.24.24,0,0,1,.18-.09h0l.18,0,.52,0c-.32-1.73,1.54-3.11,2.71-3.92l-.12-.18c-.78-1.2-1.86-2.83-1.37-4.08C104.94,72.31,105.82,71.88,107.11,71.88Z"/><polygon class="b" points="82.17 22.02 77.11 27.41 82.34 32.97 92.48 32.97 82.17 22.02"/><polygon class="b" points="117.51 42.07 108.1 32.07 98.69 42.07 117.51 42.07"/><polygon class="b" points="49.25 32.97 59.39 32.97 64.63 27.41 59.56 22.02 49.25 32.97"/><path class="b" d="M67.54,32.12a3.33,3.33,0,1,1,5.57,2.46,1.1,1.1,0,0,1,.18.62l0,1.8H85L70.87,22,56.76,37H68.47l0-1.82a1.09,1.09,0,0,1,.18-.61A3.31,3.31,0,0,1,67.54,32.12Z"/><polygon class="b" points="43.12 28.15 37.12 34.52 39.45 37 51.46 37 43.12 28.15"/><polygon class="b" points="90.27 37 102.28 37 104.62 34.52 98.61 28.15 90.27 37"/><polygon class="b" points="24.22 42.07 43.04 42.07 33.63 32.07 24.22 42.07"/><path class="b" d="M49.18,59.19a1.41,1.41,0,0,0,.35-.21,2,2,0,0,0,.53-.82,1.51,1.51,0,0,0,0-1.27.4.4,0,0,0-.31-.17.36.36,0,0,0-.19.05,1.49,1.49,0,0,0-.65,1,.21.21,0,0,1-.17.16h0a.21.21,0,0,1-.18-.09,1.24,1.24,0,0,1-.06-1.3,1.2,1.2,0,0,1,.65-.59,1.37,1.37,0,0,0-.37,0h-.05a1.39,1.39,0,0,0-1.18.51.82.82,0,0,0,.08.8,1.18,1.18,0,0,1,.2,1.21c-.22.39-.79.59-1.7.59a11.38,11.38,0,0,1-3.28-.56.21.21,0,0,1-.14-.24.22.22,0,0,1,.21-.18,1.26,1.26,0,0,0,1.15-.5,3.44,3.44,0,0,1-3.1-2.39.21.21,0,0,1,.15-.25h.07a.21.21,0,0,1,.19.12,3.28,3.28,0,0,0,2.48,1.55,3.84,3.84,0,0,1,2.15-2.72,2.12,2.12,0,0,1,.53-1.15,1.23,1.23,0,0,1,.6-.36c0-.13-.08-.31-.14-.55l0-.07a.21.21,0,0,1,0-.19.22.22,0,0,1,.17-.09,1.12,1.12,0,0,0,1-.72.85.85,0,0,0-.23-1,.34.34,0,0,0-.25-.11c-.37,0-.87.54-1.2.9l-.18.2a.26.26,0,0,1-.16.07h-.07a.23.23,0,0,1-.15-.18,1.68,1.68,0,0,1,.43-1.28,1.37,1.37,0,0,1,1-.51,1,1,0,0,1,.42.08,1.16,1.16,0,0,0,0-1.06.61.61,0,0,0-.53-.35.74.74,0,0,0-.25.05,2,2,0,0,0-.83,1c-.07.12-.14.26-.22.38a.21.21,0,0,1-.18.11h0a.23.23,0,0,1-.18-.15,1.7,1.7,0,0,1,.16-1.44,2.16,2.16,0,0,0-1.37,1,.74.74,0,0,0,.21.86,2,2,0,0,1,.55,1.86c-.3,1.15-1.66,2.06-2.85,2.55l0,0A3.45,3.45,0,0,1,43,54.9a.22.22,0,0,1-.12.26l-.09,0a.23.23,0,0,1-.18-.09,6,6,0,0,0-4.33-2.23c-.23,0-.51,0-.84,0-1.31,0-3.1,0-3.71-.84a1.19,1.19,0,0,1-.14-1.1.21.21,0,0,1,.21-.16h0a.22.22,0,0,1,.2.19c.09.62.54.89,1.53.89.39,0,.83,0,1.25-.08A9.49,9.49,0,0,1,38,51.65a2.92,2.92,0,0,1,.46,0c.37-.19.51-.39.48-.51s-.29-.29-.71-.29h-.1a2.18,2.18,0,0,0-.53.09,3,3,0,0,1-.66.1,1.05,1.05,0,0,1-.68-.23,1.1,1.1,0,0,1-.32-1,1.48,1.48,0,0,1,.59-1.17,1.66,1.66,0,0,1,.75-.17,4,4,0,0,1,1.38.32l.31.1a.63.63,0,0,0,.32-.42.6.6,0,0,0-.06-.56l0,0a1.72,1.72,0,0,0-1.37-.63,2.94,2.94,0,0,0-1.86.74.2.2,0,0,1-.14.06l-.09,0a.21.21,0,0,1-.13-.18.61.61,0,0,1,0-.19.92.92,0,0,1-.65-.85.2.2,0,0,1,.12-.2l.09,0a.24.24,0,0,1,.14,0,.6.6,0,0,0,.38.13.68.68,0,0,0,.59-.31c-.06-.06-.35-.19-1.14-.19a5.68,5.68,0,0,0-1.75.22.23.23,0,0,1-.11,0,.17.17,0,0,1-.1,0A.21.21,0,0,1,33,46.4a.59.59,0,0,0-.59-.57.57.57,0,0,0-.53.35h0a.63.63,0,0,0,0,.57.61.61,0,0,0,.39.38.23.23,0,0,1,.16.19.23.23,0,0,1-.13.22.87.87,0,0,1-.32.06.66.66,0,0,1-.25,0c-1.11,2.06-.74,5.34-.39,8.51a30.87,30.87,0,0,1,.3,5c.32-.1.39-.41.48-.9a4.19,4.19,0,0,1,.11-.51.21.21,0,0,1,.2-.15h0a.2.2,0,0,1,.2.14c.46,1.14-.12,2.86-.51,4l-.08.24c-.66,2-2,3.33-3.34,3.33a2.24,2.24,0,0,1-1.78-1c-1.24-1.62-.33-4,.63-6.58,1.14-3,2.32-6.14.35-8.52A3.13,3.13,0,0,0,25.46,50a2.63,2.63,0,0,0-1.88.73c-2.28,2.31-1,6.34.72,9.12.18-.46.24-1.22-.15-1.5a2.37,2.37,0,0,1-.64-2.81.21.21,0,0,1,.2-.13h0a.21.21,0,0,1,.2.16A4.94,4.94,0,0,0,25,57.74c.23,0,.48-.39.63-1a.83.83,0,0,0,0-.34,2.23,2.23,0,0,1-1.42-1.19,2.17,2.17,0,0,1,0-1.91.21.21,0,0,1,.19-.13.22.22,0,0,1,.2.13c.09.19.18.42.28.67.27.73.62,1.65,1.18,1.65l.13,0a.2.2,0,0,0,.07-.11,1,1,0,0,0-.2-.74c-.47-.66-1.95-2.91-1.4-4a1,1,0,0,1,1-.5,2.37,2.37,0,0,1,.51,0c1.88.35,2.64,3.19,2.32,4.91a19.46,19.46,0,0,1-1.42,4.21c-1,2.5-2.19,5.33-1.45,7a2.63,2.63,0,0,0,2.53,1.39h.06a.22.22,0,0,1,.22.22.06.06,0,0,1,0,0l0,.16C28.28,69.5,28,72,26.15,72.36a3.13,3.13,0,0,1-.51,0c-.51,0-1.23-.06-1.65-.09h-.11c0,.17.06.34.08.52.41,2.43,1,5.75.49,8.19l.9.19a.18.18,0,0,1,.15.13.21.21,0,0,1,0,.2A1.42,1.42,0,0,0,25.35,83a1.05,1.05,0,0,0,.94.58,1.3,1.3,0,0,0,.66-.2,1.43,1.43,0,0,1-.07-.68A.23.23,0,0,1,27,82.5h.08a.24.24,0,0,1,.14.05l.22.18a2.76,2.76,0,0,0,1.56.89,1,1,0,0,0,.53-.16c.41-.25.62-.49.61-.67S29.74,82.26,29,82a.23.23,0,0,1-.13-.21.22.22,0,0,1,.14-.2,1.73,1.73,0,0,1,.6-.11,1.58,1.58,0,0,1,1.33.67,1.17,1.17,0,0,0,.51-.59,1.43,1.43,0,0,0-.19-1.11.71.71,0,0,0-.61-.32h0a3.85,3.85,0,0,0-.74.13,5.18,5.18,0,0,1-1,.16H28.8a1.71,1.71,0,0,1-1.29-.49A2.22,2.22,0,0,1,27,78.25c0-.18,0-.36,0-.54a3.6,3.6,0,0,1,.61-2.58,2.62,2.62,0,0,1,2-.67l.68,0,.64,0a3.16,3.16,0,0,0,.89-.1c.56-.16.65-.72.77-1.63A11.83,11.83,0,0,1,34,67.41,15.19,15.19,0,0,1,39.93,62a3,3,0,0,1-2.36-1,1.39,1.39,0,0,1-.16-1.33.22.22,0,0,1,.2-.14h0a.21.21,0,0,1,.2.15c.34,1,1.31,1.21,2.87,1.21h1a4.07,4.07,0,0,1,2.71.64,2.91,2.91,0,0,1,2.21-.69,10.36,10.36,0,0,1,1.55.12,1.56,1.56,0,0,1,1.06-1.08L49,59.46A.23.23,0,0,1,49.18,59.19ZM33.41,53.87h.07a.2.2,0,0,1,.19.11A4,4,0,0,0,36.27,56a.45.45,0,0,0,.39-.17,1.58,1.58,0,0,0,0-1.23.2.2,0,0,1,.1-.24.2.2,0,0,1,.11,0,.24.24,0,0,1,.15.06,1.8,1.8,0,0,1,.36,1.74,1.28,1.28,0,0,1-1.28.8h0a3.15,3.15,0,0,1-2.83-2.84A.21.21,0,0,1,33.41,53.87Zm.06,8.89h0a.22.22,0,0,1-.19-.12.21.21,0,0,1,0-.24c.32-.35.27-1.25.23-1.85,0-.17,0-.32,0-.45a.21.21,0,0,1,.13-.2l.08,0a.23.23,0,0,1,.16.06,2.29,2.29,0,0,1,.61,1.46A1.32,1.32,0,0,1,33.47,62.76Zm4.73-4.64a1.94,1.94,0,0,1-1.86,1h0a4.28,4.28,0,0,1-1-.16,3.69,3.69,0,0,1,.6,2.27.22.22,0,0,1-.2.2h0a.23.23,0,0,1-.22-.18,5.67,5.67,0,0,0-1.68-2.57c-.93-1-1.89-2-1.65-3.43a.22.22,0,0,1,.43,0,3,3,0,0,0,.84,1.6,4.53,4.53,0,0,0,3.17,1.35h0a1.78,1.78,0,0,0,1.26-.34l0,0a.16.16,0,0,1,.12,0h0a.21.21,0,0,1,.21.22A.19.19,0,0,1,38.2,58.12Zm2.37.66a.93.93,0,0,1-.76.5.78.78,0,0,1-.39-.12.23.23,0,0,1-.09-.25.23.23,0,0,1,.21-.15h0a.4.4,0,0,0,.34-.16,1.28,1.28,0,0,0,0-1.07A12.3,12.3,0,0,0,39,55.82c-.19-.34-.33-.6-.39-.74a.23.23,0,0,1,.06-.26.23.23,0,0,1,.14,0,.2.2,0,0,1,.13,0l.1.08a3.78,3.78,0,0,1,1.32,1.41A2.56,2.56,0,0,1,40.57,58.78Z"/><circle class="b" cx="70.86" cy="32.12" r="2.35"/><path class="b" d="M71.4,83.19v-.1l.21-11.33a.12.12,0,0,0,0-.1h-.11a1.93,1.93,0,0,0-1.29,1.78l.12,7h0l0,2.39v.38h0l.06,3.47a.48.48,0,0,0,.48.47.48.48,0,0,0,.47-.47l0-2h0v-.65h0v-.86Z"/><path class="b" d="M73.93,66.49a.77.77,0,0,0-.12-.37,3.13,3.13,0,0,0-1.1-.84l0,1.94a7.51,7.51,0,0,0,1.19-.63C73.93,66.55,73.93,66.53,73.93,66.49Z"/><path class="b" d="M22.74,43.57H44.52a.86.86,0,0,0,.63-1.46l-3.38-3.6H52.93A.88.88,0,0,0,53.57,37l-2.42-2.57h5.92L54.65,37a.86.86,0,0,0-.16.94.87.87,0,0,0,.8.53h13.2v-.65H55.29a.21.21,0,0,1-.2-.13.21.21,0,0,1,0-.24l3.45-3.67H49.64l3.45,3.67a.21.21,0,0,1,0,.24.21.21,0,0,1-.2.13H40.26l4.42,4.69a.24.24,0,0,1,0,.24.21.21,0,0,1-.2.13H22.74a.21.21,0,0,1-.19-.13.22.22,0,0,1,0-.24L33.47,31a.22.22,0,0,1,.32,0l2.74,2.91L43,27.07a.22.22,0,0,1,.32,0l5.18,5.5L59.4,20.94a.23.23,0,0,1,.16-.06.2.2,0,0,1,.15.06l5.5,5.84,5.5-5.84a.23.23,0,0,1,.16-.06.2.2,0,0,1,.15.06l5.5,5.84L82,20.94a.2.2,0,0,1,.15-.06.23.23,0,0,1,.16.06L93.27,32.57l5.18-5.5a.22.22,0,0,1,.32,0l6.43,6.83L107.94,31a.22.22,0,0,1,.32,0l10.88,11.56a.22.22,0,0,1,0,.24.21.21,0,0,1-.2.13H97.21a.22.22,0,0,1-.2-.13.24.24,0,0,1,0-.24l4.43-4.69H88.8a.21.21,0,0,1-.2-.13.21.21,0,0,1,0-.24l3.45-3.67H83.15l3.45,3.67a.21.21,0,0,1,0,.24.21.21,0,0,1-.2.13H73.25v.65h13.2A.88.88,0,0,0,87.08,37l-2.42-2.57h5.92L88.16,37a.88.88,0,0,0,.64,1.47H100l-3.38,3.6a.86.86,0,0,0,.63,1.46H119a.87.87,0,0,0,.64-1.46L108.73,30.54a.87.87,0,0,0-.63-.27h0a.91.91,0,0,0-.64.27L105.2,33l-6-6.33a.87.87,0,0,0-1.26,0l-4.71,5L82.81,20.5a.88.88,0,0,0-.64-.28.84.84,0,0,0-.63.28l-5,5.33-5-5.33a.84.84,0,0,0-.63-.28.88.88,0,0,0-.64.28l-5,5.33-5-5.33a.84.84,0,0,0-.63-.28h0a.88.88,0,0,0-.64.28L48.46,31.61l-4.71-5a.87.87,0,0,0-1.26,0l-6,6.33-2.26-2.41a.91.91,0,0,0-.64-.27.87.87,0,0,0-.63.27L22.11,42.11a.87.87,0,0,0,.63,1.46Z"/><path class="b" d="M67.5,58.11c0,.73.69,1.27,1.41,1.62l-.07-3.57a.57.57,0,0,0-.13.08A2.5,2.5,0,0,0,67.5,58.11Z"/><path class="b" d="M118.41,61a10.88,10.88,0,0,0,2.43-5.29,6.8,6.8,0,0,0-1.64-6.12,4.09,4.09,0,0,0-2.92-1.16,4.62,4.62,0,0,0-3.65,1.74c-.15.21-.29.42-.42.62a9.13,9.13,0,0,0-.78-3.8,2.32,2.32,0,0,0-.36-1.74,2.18,2.18,0,0,0-1.77-1,2.06,2.06,0,0,0-1.46.63h-.12c-.38,0-.85-.08-1.31-.08a2.53,2.53,0,0,0-2.08.75.89.89,0,0,0-.14.24,4.87,4.87,0,0,0-.54,0,4.58,4.58,0,0,0-2,.42,1.7,1.7,0,0,0-.74,1.77,1,1,0,0,0-.47-.73.89.89,0,0,0-.47-.14.86.86,0,0,0-.6.24,4.31,4.31,0,0,0-.51.56,2.88,2.88,0,0,0-1-1.2,2.12,2.12,0,0,0-.39-.76,1.56,1.56,0,0,0-1.06-.58h-.07a.87.87,0,0,0-.72.39l0,0-.35,0a3.87,3.87,0,0,0-1.4.26A1.91,1.91,0,0,0,93.3,46a1.52,1.52,0,0,0-1.23.54.86.86,0,0,0,.27,1.3,2.87,2.87,0,0,0,.09,1.22,1.67,1.67,0,0,0-.92,1,.9.9,0,0,0,.15.76.84.84,0,0,0,.45.31,2.57,2.57,0,0,0,1,1.32.62.62,0,0,1,0,.1l-.05.2a.86.86,0,0,0,.85,1.06,2,2,0,0,1-.77.12h-.16a.85.85,0,0,0-.71.54l0,.07h0a.87.87,0,0,0-.82-.58H89.44L87.6,51.12a.86.86,0,0,0-.5-.37,36.62,36.62,0,0,0-5.43-1.07,4.82,4.82,0,0,1-.35.63,34.47,34.47,0,0,1,5.61,1.07.38.38,0,0,1,.13.09l2,3.13h2.25a.21.21,0,0,1,.19.11.35.35,0,0,1,0,.11v.55a.82.82,0,0,1,.26,0,1.79,1.79,0,0,1,.39-.2,2,2,0,0,1,.57-.13.14.14,0,0,0,.08-.06.12.12,0,0,0,0-.1.22.22,0,0,1,0-.22.23.23,0,0,1,.18-.13h.09a1.17,1.17,0,0,1,1,.67,1.56,1.56,0,0,1,.91,2.3c-.08.2-.17.44-.12.51s.13.12.63.12A11.08,11.08,0,0,0,96.94,58a2,2,0,0,1-.31-1.16.23.23,0,0,1,.21-.22h.26a3,3,0,0,0-2-2.17.21.21,0,0,1-.15-.22,1.11,1.11,0,0,0-.24-.88.81.81,0,0,0-.63-.25l-.21,0h0a.2.2,0,0,1-.16-.07.19.19,0,0,1-.05-.19s0-.08,0-.18.11-.41.16-.59A1.92,1.92,0,0,1,92.7,50.8a.35.35,0,0,0-.35-.31.21.21,0,0,1-.17-.09.21.21,0,0,1,0-.19,1.16,1.16,0,0,1,.76-.65,2.07,2.07,0,0,1,.27-.37,2.17,2.17,0,0,1-.13-1.5.2.2,0,0,0,0-.2.54.54,0,0,0-.33-.21.21.21,0,0,1-.15-.14.23.23,0,0,1,0-.21.89.89,0,0,1,.72-.28,1.28,1.28,0,0,1,.56.12,3.14,3.14,0,0,1,1.38-.31,3.25,3.25,0,0,1,.77.09h0a.16.16,0,0,0,.1-.06.21.21,0,0,0,0-.14.25.25,0,0,1,0-.22.21.21,0,0,1,.18-.09h0a.88.88,0,0,1,.6.35,1.35,1.35,0,0,1,.3.71,2.14,2.14,0,0,1,1,1.29,1.71,1.71,0,0,1-.45,1.3c-.3.46-.6.89-.34,1.43A3.76,3.76,0,0,0,100,52.81h.15a3.84,3.84,0,0,0,1.19-.49,4.18,4.18,0,0,1,.93-.44A1.27,1.27,0,0,1,102,51a2.88,2.88,0,0,1-1.07.22A2,2,0,0,1,99,50.1a2.07,2.07,0,0,1,.77-2.25.25.25,0,0,1,.15-.05.2.2,0,0,1,.11,0,.21.21,0,0,1,.09.25,1.8,1.8,0,0,0-.07,1.49.87.87,0,0,0,.75.28,4.61,4.61,0,0,0,1.38-.28,1.85,1.85,0,0,1-.51-.75c-.09-.25-.44-1.66.23-2a3.92,3.92,0,0,1,1.74-.35,5.8,5.8,0,0,1,1,.09.92.92,0,0,1,.17-.57,1.88,1.88,0,0,1,1.56-.49c.43,0,.89,0,1.25.08l.47,0A1.41,1.41,0,0,1,109.3,45a1.53,1.53,0,0,1,1.23.68,1.65,1.65,0,0,1,.2,1.45c1.2,2.09.85,5.55.51,8.9a24.21,24.21,0,0,0-.18,5.84.25.25,0,0,1,0,.19.24.24,0,0,1-.16.07h0c-.23,0-.52-.05-.82-.09.48,2,1.49,4.27,2.91,4.27a1.27,1.27,0,0,0,.28,0,1.41,1.41,0,0,0,1-.73c.6-1.09.15-3.15-.47-4.72l-.37-1c-1.37-3.51-2.45-6.28-.25-9.25a4,4,0,0,1,3.13-1.47,3.41,3.41,0,0,1,2.46,1c3,3,1.12,8.37-.81,10.52a.75.75,0,0,1-.54.29.66.66,0,0,1-.53-.32,3.14,3.14,0,0,1-.36-2,2.24,2.24,0,0,1-1.28-2.07,1.1,1.1,0,0,1-.53-.48,1.63,1.63,0,0,1,.23-1.72c.51-.8,1.57-2.45,1.32-3,0-.06-.1-.15-.33-.17h0a1.66,1.66,0,0,0-1.06.73c-1.5,2.22-.6,4.38.44,6.87l.23.56,0,.06c1.09,2.65,2.21,5.38,1.43,7.34a3.41,3.41,0,0,1-2.71,2c.34,2.4,1.08,2.87,2.29,2.87a12.4,12.4,0,0,0,1.27-.1l.84-.08h0a.2.2,0,0,1,.16.07.24.24,0,0,1,0,.18v.08c-.48,2.71-1.28,7.24-.62,9.78a.22.22,0,0,1-.17.27l-.74.14a2,2,0,0,1-.23,1.72,2,2,0,0,1-1.65.78h0a4.17,4.17,0,0,1-.72-.09,2.65,2.65,0,0,0-.61-.09,1,1,0,0,0-.3,0,3.89,3.89,0,0,1-1,.14,1.78,1.78,0,0,1-.65-.1l-.09,0a2.81,2.81,0,0,0-1-.26,1.22,1.22,0,0,0-.38.07l-.08,0a.24.24,0,0,1-.14,0,.21.21,0,0,1-.07-.21,1.32,1.32,0,0,1,.41-.68.65.65,0,0,0,0-.13,1.85,1.85,0,0,1-1.28-1.29c-.13-.35-.18-.42-.4-.42h-.15a.2.2,0,0,1-.17-.08.2.2,0,0,1,0-.21,1.16,1.16,0,0,1,.83-.66A1.44,1.44,0,0,1,111,79.27a5.69,5.69,0,0,1,1,.12,5.06,5.06,0,0,0,.91.12,1,1,0,0,0,.71-.22c.25-.2.27-.94.28-1.64v-.1a2.49,2.49,0,0,0-.43-1.85,1.88,1.88,0,0,0-1.42-.42H112l-.62,0q-.36,0-.72,0a1.88,1.88,0,0,1-2.14-1.45,5.4,5.4,0,0,1-.18-1,6.15,6.15,0,0,0-1.3-.16c-.61,0-1.39.12-1.64.68-.32.74.63,2.22,1.26,3.2.21.32.38.6.5.82a.22.22,0,0,1-.07.29,12.73,12.73,0,0,0-2.35,1.89,2.65,2.65,0,0,0-.42,2.24V82a.24.24,0,0,1-.07.18.2.2,0,0,1-.15.06H104l-.5-.06a1.89,1.89,0,0,1-.38,1.44,2,2,0,0,1-1.64.75h0a4.18,4.18,0,0,1-.72-.08,3.61,3.61,0,0,0-.64-.08,4,4,0,0,0-.67.09,3.5,3.5,0,0,1-.66.09h0a2.94,2.94,0,0,1-1-.24,2.31,2.31,0,0,0-.82-.21,1.07,1.07,0,0,0-.39.07l-.08,0a.24.24,0,0,1-.14,0,.23.23,0,0,1-.07-.22,1.6,1.6,0,0,1,.4-.68.56.56,0,0,1,0-.12,2,2,0,0,1-1.27-1.4c-.13-.38-.18-.46-.39-.46h-.16A.21.21,0,0,1,94.6,81a.22.22,0,0,1,0-.22,1.14,1.14,0,0,1,.83-.64A1.64,1.64,0,0,1,97.06,79h0a5.32,5.32,0,0,1,1.43.31,4.46,4.46,0,0,0,.74.19h.09a1.78,1.78,0,0,0,1.78-1.25,3.82,3.82,0,0,0-1.49-3.58,2.86,2.86,0,0,1-1.5-2.46c.18-1.93,3.28-3.42,5.77-4.61l.35-.16.31-.15c.47-.21,1.18-.53,1.18-.84,0-.89-2.61-2.55-4.33-3.64a5.3,5.3,0,0,0-2.41-1h0a2,2,0,0,0-1.51.75.24.24,0,0,1-.16.07h0a.26.26,0,0,1-.16-.09,1.91,1.91,0,0,0-1.49-.88H95.5a18.43,18.43,0,0,0-2.45.2h0a.23.23,0,0,1-.16-.06.21.21,0,0,1-.06-.18.93.93,0,0,0-.17-.74.72.72,0,0,0-.44-.22.93.93,0,0,0-.23,0H91.7a.2.2,0,0,1-.15-.07V83.7a.21.21,0,0,1-.07.15.22.22,0,0,1-.15.06h0L74.65,83a6.35,6.35,0,0,1-2.28.91v.67a7.39,7.39,0,0,0,2.47-.91l16.45.9h0a.87.87,0,0,0,.87-.87V62a.84.84,0,0,0,.21.35.9.9,0,0,0,.62.25h.11a19.23,19.23,0,0,1,2.36-.19h.15a.76.76,0,0,1,.4.1,2,2,0,0,1,.58.53.88.88,0,0,0,.65.33h0A.86.86,0,0,0,98,63a1.35,1.35,0,0,1,1-.52h0a4.31,4.31,0,0,1,2,.87c1,.66,2,1.3,2.82,1.89A5,5,0,0,1,105,66.36a6.64,6.64,0,0,1-.71.35l-.34.16-.34.16c-2.64,1.27-5.93,2.84-6.14,5.14a3.45,3.45,0,0,0,1.77,3h0a3.14,3.14,0,0,1,1.22,2.9,1.14,1.14,0,0,1-1.14.75h-.06c-.09,0-.37-.1-.57-.16a5.76,5.76,0,0,0-1.63-.34h0a2.28,2.28,0,0,0-2.12,1.22,1.72,1.72,0,0,0-1,.94.84.84,0,0,0,.13.86.87.87,0,0,0,.61.33h0a2.64,2.64,0,0,0,1,1.48,2.32,2.32,0,0,0-.13.37.87.87,0,0,0,.85,1.06.87.87,0,0,0,.32-.06.4.4,0,0,1,.15,0,2,2,0,0,1,.59.17,3.64,3.64,0,0,0,1.22.29h0a4.32,4.32,0,0,0,.77-.11,3.07,3.07,0,0,1,.54-.08,3.56,3.56,0,0,1,.52.07,4.2,4.2,0,0,0,.84.1h0a2.71,2.71,0,0,0,2.16-1,2.57,2.57,0,0,0,.49-1.12h0a.88.88,0,0,0,.87-1l0-.12c-.08-.82-.1-1.34.26-1.73a11.79,11.79,0,0,1,2.22-1.78.89.89,0,0,0,.3-1.15c-.13-.24-.32-.53-.53-.86a13.94,13.94,0,0,1-1-1.67c-.32-.69-.24-.91-.24-.91s.41-.29,1-.29a5.92,5.92,0,0,1,.71,0,4.43,4.43,0,0,0,.14.6A2.55,2.55,0,0,0,110.68,76l.76,0,.59,0h0a1.48,1.48,0,0,1,1,.23c.19.18.27.65.25,1.37v.1a6.33,6.33,0,0,1-.09,1.19.63.63,0,0,1-.25,0,4.25,4.25,0,0,1-.79-.11,6.74,6.74,0,0,0-1.11-.14,2,2,0,0,0-2,1.24,1.69,1.69,0,0,0-1,.94.87.87,0,0,0,.13.85.89.89,0,0,0,.62.33,2.52,2.52,0,0,0,1,1.35,1.56,1.56,0,0,0-.13.38.88.88,0,0,0,.29.84.89.89,0,0,0,.56.2,1.06,1.06,0,0,0,.31,0,.4.4,0,0,1,.15,0,2.44,2.44,0,0,1,.73.2l.1,0a2.35,2.35,0,0,0,.88.15,4.87,4.87,0,0,0,1.18-.17l.12,0a2.51,2.51,0,0,1,.48.08,4.18,4.18,0,0,0,.85.11h0A2.65,2.65,0,0,0,117.61,84a2.43,2.43,0,0,0,.43-1.56l.1,0a.88.88,0,0,0,.59-.38.83.83,0,0,0,.11-.7c-.63-2.41.16-6.85.63-9.5v-.08a.87.87,0,0,0-.21-.74.88.88,0,0,0-.64-.28h-.08l-.85.08a11.54,11.54,0,0,1-1.2.09c-.61,0-1.19,0-1.54-1.69a4.07,4.07,0,0,0,2.57-2.27c.63-1.58.21-3.48-.5-5.46a1,1,0,0,0,.36.06A1.35,1.35,0,0,0,118.41,61Zm-5.62-1,.37,1h0c.7,1.76.91,3.43.51,4.16a.75.75,0,0,1-.59.4l-.16,0c-.71,0-1.5-1.16-2-2.88a.86.86,0,0,0,.61-.29.88.88,0,0,0,.2-.73,18.35,18.35,0,0,1,.07-4.47C112.05,58.16,112.41,59.1,112.79,60.07Z"/><path class="b" d="M93.06,57.93h0a.21.21,0,0,1-.17-.16,1.48,1.48,0,0,0-.65-1,.45.45,0,0,0-.18,0,.38.38,0,0,0-.31.17,1.46,1.46,0,0,0,0,1.27,1.94,1.94,0,0,0,.53.81,1.13,1.13,0,0,0,.36.22.23.23,0,0,1,.13.27l-.13.43a1.54,1.54,0,0,1,1,1.08,10.36,10.36,0,0,1,1.55-.12,2.9,2.9,0,0,1,2.21.69,4.1,4.1,0,0,1,2.72-.64h1c1.56,0,2.53-.2,2.87-1.21a.22.22,0,0,1,.21-.15h0a.22.22,0,0,1,.2.14,1.39,1.39,0,0,1-.16,1.33,3,3,0,0,1-2.36,1,15.19,15.19,0,0,1,5.94,5.4,11.83,11.83,0,0,1,1.46,5.36c.12.91.22,1.47.78,1.63a3,3,0,0,0,.88.1l.64,0,.68,0a2.61,2.61,0,0,1,2,.68,3.56,3.56,0,0,1,.6,2.57v.54a2.26,2.26,0,0,1-.55,1.63,1.73,1.73,0,0,1-1.29.49h-.06a5,5,0,0,1-1-.16,3.93,3.93,0,0,0-.75-.13h0a.68.68,0,0,0-.6.32,1.38,1.38,0,0,0-.2,1.1,1.25,1.25,0,0,0,.51.6,1.58,1.58,0,0,1,1.33-.67,1.73,1.73,0,0,1,.6.11.2.2,0,0,1,.14.2.23.23,0,0,1-.13.21c-.76.31-1.15.59-1.16.83s.2.42.6.67a1,1,0,0,0,.53.16,2.73,2.73,0,0,0,1.56-.89l.22-.18a.24.24,0,0,1,.14-.05h.08a.24.24,0,0,1,.14.18,1.57,1.57,0,0,1-.08.68,1.33,1.33,0,0,0,.67.2,1.05,1.05,0,0,0,.93-.58,1.42,1.42,0,0,0-.13-1.45.21.21,0,0,1,0-.2.18.18,0,0,1,.15-.13l.91-.19c-.49-2.44.07-5.76.48-8.19l.09-.52h-.12c-.42,0-1.14.09-1.65.09a3.21,3.21,0,0,1-.51,0c-1.81-.33-2.13-2.86-2.28-4.07l0-.17a.23.23,0,0,1,0-.18.24.24,0,0,1,.16-.07h.06a2.63,2.63,0,0,0,2.53-1.4c.74-1.66-.42-4.49-1.45-7a18.84,18.84,0,0,1-1.41-4.21c-.33-1.72.43-4.56,2.31-4.91a2.43,2.43,0,0,1,.51,0,1,1,0,0,1,1,.5c.55,1.06-.93,3.31-1.39,4a.94.94,0,0,0-.2.75.16.16,0,0,0,.06.11l.13,0c.56,0,.91-.92,1.19-1.65.09-.25.18-.48.27-.67a.22.22,0,0,1,.2-.13.21.21,0,0,1,.19.13,2.17,2.17,0,0,1,0,1.91,2.23,2.23,0,0,1-1.42,1.19,1,1,0,0,0,0,.33c.15.59.4,1,.63,1a4.91,4.91,0,0,0,1.08-2.21.2.2,0,0,1,.19-.16h0a.21.21,0,0,1,.19.13,2.36,2.36,0,0,1-.64,2.81c-.38.28-.33,1-.15,1.5,1.77-2.78,3-6.81.72-9.12a2.63,2.63,0,0,0-1.88-.73,3.1,3.1,0,0,0-2.46,1.17c-2,2.37-.79,5.49.35,8.51,1,2.55,1.87,5,.63,6.58a2.23,2.23,0,0,1-1.78,1c-1.34,0-2.68-1.34-3.34-3.33l-.08-.24c-.39-1.14-1-2.86-.51-4a.22.22,0,0,1,.2-.14h0a.21.21,0,0,1,.2.15,4.19,4.19,0,0,1,.11.51c.09.49.16.8.48.9a30.87,30.87,0,0,1,.3-5c.35-3.17.72-6.45-.38-8.51a.69.69,0,0,1-.25,0,.88.88,0,0,1-.33-.06.25.25,0,0,1-.13-.22.22.22,0,0,1,.17-.19.7.7,0,0,0,.38-1h0a.6.6,0,0,0-.54-.35.59.59,0,0,0-.59.57.21.21,0,0,1-.12.17.17.17,0,0,1-.1,0,.19.19,0,0,1-.1,0,5.79,5.79,0,0,0-1.75-.22c-.81,0-1.09.13-1.15.19a.68.68,0,0,0,.59.31.6.6,0,0,0,.38-.13.24.24,0,0,1,.14,0l.09,0a.23.23,0,0,1,.13.2,1,1,0,0,1-.66.85.61.61,0,0,1,0,.19.19.19,0,0,1-.13.18l-.08,0a.2.2,0,0,1-.15-.06,2.94,2.94,0,0,0-1.85-.74,1.74,1.74,0,0,0-1.38.63l0,0a.6.6,0,0,0,0,.56.58.58,0,0,0,.32.42l.3-.1a4,4,0,0,1,1.38-.32,1.66,1.66,0,0,1,.75.17,1.48,1.48,0,0,1,.59,1.17,1.1,1.1,0,0,1-.32,1,1,1,0,0,1-.67.23,2.84,2.84,0,0,1-.66-.1,2.34,2.34,0,0,0-.54-.09h-.1c-.42,0-.67.15-.71.29s.11.32.48.51a3.06,3.06,0,0,1,.47,0,9.34,9.34,0,0,1,1.12.09c.42,0,.86.08,1.26.08,1,0,1.43-.27,1.52-.89a.23.23,0,0,1,.2-.19h0a.22.22,0,0,1,.21.16A1.22,1.22,0,0,1,108,52c-.6.82-2.4.83-3.71.84-.32,0-.61,0-.84,0a6,6,0,0,0-4.33,2.23.23.23,0,0,1-.18.09l-.09,0a.25.25,0,0,1-.12-.26,3.61,3.61,0,0,1,.73-1.19l0,0c-1.19-.49-2.55-1.4-2.84-2.55a2,2,0,0,1,.55-1.87.73.73,0,0,0,.2-.85,2.16,2.16,0,0,0-1.37-1,1.7,1.7,0,0,1,.16,1.44A.23.23,0,0,1,96,49h0a.21.21,0,0,1-.19-.11c-.08-.12-.15-.26-.22-.38a2,2,0,0,0-.82-1,.85.85,0,0,0-.25-.05.61.61,0,0,0-.54.35,1.16,1.16,0,0,0,0,1.06,1,1,0,0,1,.42-.08,1.37,1.37,0,0,1,1,.51,1.65,1.65,0,0,1,.43,1.28.23.23,0,0,1-.15.18h-.07a.21.21,0,0,1-.15-.07l-.19-.2c-.33-.36-.82-.9-1.2-.9a.34.34,0,0,0-.25.11.86.86,0,0,0-.23,1,1.13,1.13,0,0,0,1,.72.26.26,0,0,1,.17.09.24.24,0,0,1,0,.19l0,.07c-.06.24-.11.42-.14.55a1.19,1.19,0,0,1,.6.36,2,2,0,0,1,.53,1.15,3.81,3.81,0,0,1,2.15,2.72A3.28,3.28,0,0,0,100.42,55a.21.21,0,0,1,.2-.12h.07a.22.22,0,0,1,.14.25,3.44,3.44,0,0,1-3.1,2.39,1.26,1.26,0,0,0,1.15.5.21.21,0,0,1,.21.18.21.21,0,0,1-.14.24,11.26,11.26,0,0,1-3.28.56c-.91,0-1.48-.2-1.69-.59a1.18,1.18,0,0,1,.19-1.21.82.82,0,0,0,.08-.8,1.39,1.39,0,0,0-1.18-.51h0a1.4,1.4,0,0,0-.38,0,1.27,1.27,0,0,1,.59,1.89A.21.21,0,0,1,93.06,57.93Zm15.42,4.71a.22.22,0,0,1-.19.12h0a1.32,1.32,0,0,1-1-1.36,2.24,2.24,0,0,1,.62-1.46h0a.19.19,0,0,1,.13,0h0a.22.22,0,0,1,.22.22h0c0,.13,0,.27,0,.44,0,.6-.08,1.5.23,1.85A.21.21,0,0,1,108.48,62.64Zm-3.79-8.23a.2.2,0,0,1,.15-.06h0a.21.21,0,0,1,.21.21.15.15,0,0,1,0,.07,1.6,1.6,0,0,0,0,1.22.45.45,0,0,0,.39.17,4,4,0,0,0,2.6-2.05.21.21,0,0,1,.19-.11h.07a.22.22,0,0,1,.15.24A3.17,3.17,0,0,1,105.63,57h0a1.28,1.28,0,0,1-1.28-.8A1.8,1.8,0,0,1,104.69,54.41Zm-1.07,3.44a.24.24,0,0,1,.12,0,.22.22,0,0,1,.15.06,1.81,1.81,0,0,0,1.26.34h0a4.57,4.57,0,0,0,3.18-1.35,3.1,3.1,0,0,0,.83-1.6.22.22,0,0,1,.21-.18.22.22,0,0,1,.22.18c.24,1.41-.72,2.43-1.65,3.43a5.67,5.67,0,0,0-1.68,2.57.22.22,0,0,1-.21.18h0a.22.22,0,0,1-.21-.2,3.69,3.69,0,0,1,.6-2.27,4.12,4.12,0,0,1-1,.16h0c-.35,0-1.51-.08-1.86-1A.22.22,0,0,1,103.62,57.85Zm-2.26-1.54a3.86,3.86,0,0,1,1.32-1.41l.1-.08a.2.2,0,0,1,.13,0h0a.21.21,0,0,1,.22.21.3.3,0,0,1,0,.1c-.06.15-.21.41-.39.73a12.3,12.3,0,0,0-.85,1.71c-.16.5-.18.88,0,1.07a.43.43,0,0,0,.34.16h0a.22.22,0,0,1,.21.15.23.23,0,0,1-.09.25.78.78,0,0,1-.39.12.93.93,0,0,1-.76-.5A2.56,2.56,0,0,1,101.36,56.31Z"/><path class="b" d="M80.7,51.11a4,4,0,0,1-.4.42,12.48,12.48,0,0,1-5.64,2.68l-.9.21-.86.21a2.11,2.11,0,0,1,0,.25L72.8,61a1.59,1.59,0,0,1,.3.06l.27.09c1.21.4,4.88,1.61,4.82,5.08A4.13,4.13,0,0,1,77,69.16,8.45,8.45,0,0,1,73.75,71l-.08,0,0,0-.17,0-.94.31a1.11,1.11,0,0,1,.06.4l-.14,8.31A28.48,28.48,0,0,1,81,78.64a19.29,19.29,0,0,1,7.41,1.47V59.82h0l.21-2.64a.22.22,0,0,1,.44,0l.21,2.64V81.12a.21.21,0,0,1-.11.19.2.2,0,0,1-.11,0,.17.17,0,0,1-.1,0A19.37,19.37,0,0,0,81,79.49,28.29,28.29,0,0,0,72.42,81l0,2a5.35,5.35,0,0,0,2-.84.2.2,0,0,1,.13,0h0L90.69,83V55.45h-2a.21.21,0,0,1-.19-.1L87.16,53.2V75.13L87,77.76a.22.22,0,0,1-.44,0l-.21-2.63v-23A31.59,31.59,0,0,0,80.7,51.11Z"/><path class="b" d="M53.18,55.35a.21.21,0,0,1-.19.1H51V83l16.22-.88h0a.2.2,0,0,1,.13,0,5.35,5.35,0,0,0,1.95.84l0-2a28.6,28.6,0,0,0-8.59-1.51,19.37,19.37,0,0,0-7.95,1.82.19.19,0,0,1-.1,0,.2.2,0,0,1-.11,0,.21.21,0,0,1-.11-.19V59.82h0l.21-2.64a.23.23,0,0,1,.22-.2.21.21,0,0,1,.21.2l.22,2.64v20.3a19.29,19.29,0,0,1,7.41-1.47,28.88,28.88,0,0,1,8.58,1.44l-.09-4.82-.1,0A3.17,3.17,0,0,1,66.86,72a4.08,4.08,0,0,1,2.22-3.38L69,64.46c-.26-.07-.53-.13-.68-.18-1.57-.42-5.74-1.54-5.68-6.17,0-2.83,1.82-5.15,5.18-6.52A19.35,19.35,0,0,0,63,51a29.79,29.79,0,0,0-7.61,1.07v23l-.22,2.63A.2.2,0,0,1,55,78a.21.21,0,0,1-.22-.2l-.21-2.63V53.2Z"/><path class="b" d="M119.82,90.24v.86a.08.08,0,0,1,0,0h0A58.37,58.37,0,0,0,106,89.52c-7,0-13.61,1.35-22.16,2.91a68.1,68.1,0,0,1-12.11,1.1,69.48,69.48,0,0,1-12.3-1.12c-7.08-1.29-14.57-2.88-22.21-2.88a56.8,56.8,0,0,0-13.69,1.63h-.05s0,0,0-.05v-.85a0,0,0,0,1,0,0,65.81,65.81,0,0,1,14.85-1.63,77.82,77.82,0,0,1,9.3.56c2.68.33,5.36.88,8,1.41a88.85,88.85,0,0,0,10,1.6c1.84.15,3.74.26,5.66.26A86.46,86.46,0,0,0,89.6,90.15a76.55,76.55,0,0,1,16.08-1.57l2.17,0a68.41,68.41,0,0,1,11.93,1.59A.07.07,0,0,1,119.82,90.24Z"/><path class="b" d="M119.78,92.93a69.38,69.38,0,0,0-11.93-1.59l-2.17,0A76.42,76.42,0,0,0,89.6,92.89a86.39,86.39,0,0,1-18.33,2.25c-1.92,0-3.82-.1-5.66-.26a88.49,88.49,0,0,1-10-1.6c-2.6-.53-5.28-1.08-8-1.41a80.13,80.13,0,0,0-9.31-.56,66.37,66.37,0,0,0-14.84,1.63s0,0,0,0v.85a.08.08,0,0,0,0,0h.05a56.8,56.8,0,0,1,13.69-1.63c7.64,0,15.13,1.59,22.21,2.88a69.49,69.49,0,0,0,12.3,1.13,67.19,67.19,0,0,0,12.11-1.11c8.56-1.56,15.19-2.9,22.16-2.9a57.45,57.45,0,0,1,13.74,1.62h0a.05.05,0,0,0,0,0V93A.07.07,0,0,0,119.78,92.93Z"/><path class="b" d="M119.78,95.67a67.47,67.47,0,0,0-11.93-1.59c-.72,0-1.46,0-2.17,0A76.41,76.41,0,0,0,89.6,95.63a86.39,86.39,0,0,1-18.33,2.25c-1.91,0-3.82-.11-5.66-.27a86.28,86.28,0,0,1-10-1.6c-2.6-.53-5.28-1.08-8-1.4a78,78,0,0,0-9.31-.56,66.37,66.37,0,0,0-14.84,1.62.07.07,0,0,0,0,.06v.85a.05.05,0,0,0,0,0h.05A57.3,57.3,0,0,1,37.23,95c7.64,0,15.13,1.59,22.21,2.87A69.49,69.49,0,0,0,71.74,99a68.1,68.1,0,0,0,12.11-1.1C92.41,96.34,99,95,106,95a57.46,57.46,0,0,1,13.74,1.63h0a.08.08,0,0,0,0-.05v-.85S119.8,95.67,119.78,95.67Z"/><path class="b" d="M119.78,87.45a69.38,69.38,0,0,0-11.93-1.59l-2.17,0A76.49,76.49,0,0,0,89.6,87.41a86.46,86.46,0,0,1-18.33,2.25c-1.92,0-3.82-.1-5.66-.26a88.85,88.85,0,0,1-10-1.6c-2.6-.53-5.28-1.08-8-1.4a77.86,77.86,0,0,0-9.3-.57,66.39,66.39,0,0,0-14.85,1.63s0,0,0,.05v.85a.08.08,0,0,0,0,0h.05a56.8,56.8,0,0,1,13.69-1.63c7.64,0,15.13,1.59,22.21,2.88a69.49,69.49,0,0,0,12.3,1.13,67.19,67.19,0,0,0,12.11-1.11C92.4,88.13,99,86.79,106,86.79a58.36,58.36,0,0,1,13.74,1.62h0l0,0a.05.05,0,0,0,0,0v-.85A.07.07,0,0,0,119.78,87.45Z"/></symbol></defs><rect class="a" x="4.25" y="113.57" width="133.23" height="53.86" transform="translate(141.72 280.99) rotate(180)"/><path class="b" d="M6.61,124.45V124c1.12-.12,1.2-.19,1.2-1.47v-6.79c0-1.28-.08-1.34-1.2-1.47v-.45h4l2.66,7.38h0L16,113.82h4v.45c-1.12.13-1.2.19-1.2,1.47v6.79c0,1.28.08,1.35,1.2,1.47v.45H15V124c1.12-.12,1.2-.19,1.2-1.47v-6.77h0L13,124.45H11.94l-3.09-8.58H8.79v6.66c0,1.28.07,1.35,1.2,1.47v.45Z"/><path class="b" d="M21.77,114.27v-.45h8.1v2.53h-.48c-.39-1.23-.56-1.77-2.41-1.77h-.8c-.46,0-.56.25-.56.65v3.25h1.57c1,0,1.19-.29,1.38-1.28H29v3.44h-.45c-.18-1-.45-1.36-1.38-1.36H25.62v3.25c0,1,.16,1.19,1.67,1.19s1.9-.26,2.19-.93l.5-1.17.49,0-.35,2.78H21.77V124c1.12-.12,1.2-.19,1.2-1.47v-6.79C23,114.46,22.89,114.4,21.77,114.27Z"/><path class="b" d="M31.83,124.13l.7-.25A2,2,0,0,0,34,122.44l3-8.78h2.25l2.94,8.78c.26.78.51,1.24,1,1.48l.47.21v3.2h-.58c-.48-1.85-.77-2.88-2.31-2.88H34.55c-1.46,0-1.81,1-2.14,2.88h-.58Zm3.17-1a.61.61,0,0,0,0,.22.53.53,0,0,0,.59.55h3.22c.54,0,.72-.26.72-.63a3,3,0,0,0-.2-.91l-2-6.21h-.07Z"/><path class="b" d="M45.2,124.45V124c1.13-.12,1.21-.19,1.21-1.47v-6.79c0-1.28-.08-1.34-1.21-1.47v-.45h5.06v.45c-1.12.13-1.2.19-1.2,1.47v7h.07l4.22-8.94h4.13v.45c-1.12.13-1.2.19-1.2,1.47v6.79c0,1.28.08,1.35,1.2,1.47v.45H52.42V124c1.12-.12,1.2-.19,1.2-1.47v-7.2h-.06l-4.5,9.12Z"/><path class="b" d="M65.34,114.27v-.45h5v.45c-1.12.13-1.2.19-1.2,1.47v6.79c0,1.09.63,1.35,1.64,1.35v3.45h-.47c-.51-1.76-1-2.88-2.16-2.88H59.06V124c1.12-.12,1.2-.19,1.2-1.47v-6.79c0-1.28-.08-1.34-1.2-1.47v-.45h5.06v.45c-1.12.13-1.2.19-1.2,1.47v8h3.62v-8C66.54,114.46,66.46,114.4,65.34,114.27Z"/><path class="b" d="M72.4,124.45V124c1.12-.12,1.2-.19,1.2-1.47v-6.79c0-1.28-.08-1.34-1.2-1.47v-.45h5.06v.45c-1.12.13-1.2.19-1.2,1.47v7h.07l4.22-8.94h4.13v.45c-1.12.13-1.2.19-1.2,1.47v6.79c0,1.28.08,1.35,1.2,1.47v.45H79.62V124c1.12-.12,1.2-.19,1.2-1.47v-7.2h-.06l-4.5,9.12Z"/><path class="b" d="M86.42,124.45V124c1.12-.12,1.2-.19,1.2-1.47v-6.79c0-1.28-.08-1.34-1.2-1.47v-.45h5.06v.45c-1.12.13-1.2.19-1.2,1.47v2.65h4.13v-2.65c0-1.28-.08-1.34-1.2-1.47v-.45h5.05v.45c-1.12.13-1.2.19-1.2,1.47v6.79c0,1.28.08,1.35,1.2,1.47v.45H93.21V124c1.12-.12,1.2-.19,1.2-1.47V119.2H90.28v3.33c0,1.28.08,1.35,1.2,1.47v.45Z"/><path class="b" d="M99.4,119.2c0-3.6,2.21-5.63,6-5.63a7.75,7.75,0,0,1,3.06.59v2.63h-.52c-.4-1.33-.75-2.52-2.67-2.52-2.61,0-2.94,3.2-2.94,4.68,0,2.08.62,5,3.23,5,1.76,0,2.29-1.21,2.78-2.57l.52,0-.34,2.62a8,8,0,0,1-3.3.61C101.43,124.71,99.4,122.68,99.4,119.2Z"/><path class="b" d="M110.32,114.27v-.45h5.06v.45c-1.12.13-1.2.19-1.2,1.47v6.79c0,1.28.08,1.35,1.2,1.47v.45h-5.06V124c1.12-.12,1.2-.19,1.2-1.47v-6.79C111.52,114.46,111.44,114.4,110.32,114.27Zm4,4.74,4-4.74a1.84,1.84,0,0,1,1.38-.7c.38,0,.89.22.89.73a1.42,1.42,0,0,1-.83,1.44l-.16-.08a.52.52,0,0,0-.58-.51,1.29,1.29,0,0,0-.7.53l-1.84,2.19,3.58,5.35a2.39,2.39,0,0,0,1.21.82v.46a14.18,14.18,0,0,1-2.36.19,1.73,1.73,0,0,1-1.92-1.1Z"/><path class="b" d="M122.83,124.45V124c1.12-.12,1.2-.19,1.2-1.47v-6.79c0-1.28-.08-1.34-1.2-1.47v-.45h5.06v.45c-1.12.13-1.2.19-1.2,1.47v7h.07l4.22-8.94h4.13v.45c-1.12.13-1.2.19-1.2,1.47v6.79c0,1.28.08,1.35,1.2,1.47v.45h-5.06V124c1.12-.12,1.2-.19,1.2-1.47v-7.2h-.06l-4.5,9.12Z"/><path class="b" d="M7.75,131.42v-.6h5v.6l-.64.08a.31.31,0,0,0-.25.32.89.89,0,0,0,.08.35l2,4.21h0l1.8-4.26a.78.78,0,0,0,0-.3c0-.2-.16-.32-.4-.36l-.43-.06v-.58h3v.58a1.84,1.84,0,0,0-1.54,1.23l-2.9,6.69c-.8,1.83-1.65,2.39-2.94,2.39a1.07,1.07,0,0,1-1.2-1.07,1,1,0,0,1,1-1c.52,0,1,.21,1,.75a.75.75,0,0,1-.43.69v.06c.47,0,.85-.43,1.15-1l.5-.88L9,132.33A1.41,1.41,0,0,0,7.75,131.42Z"/><path class="b" d="M19.49,141.45V141c1.12-.12,1.2-.19,1.2-1.47v-6.79c0-1.28-.08-1.34-1.2-1.47v-.45h5.06v.45c-1.12.13-1.2.19-1.2,1.47v2.65h4.12v-2.65c0-1.28-.08-1.34-1.2-1.47v-.45h5.06v.45c-1.12.13-1.2.19-1.2,1.47v6.79c0,1.28.08,1.35,1.2,1.47v.45H26.27V141c1.12-.12,1.2-.19,1.2-1.47V136.2H23.35v3.33c0,1.28.08,1.35,1.2,1.47v.45Z"/><path class="b" d="M33.07,141.45V141c1.12-.12,1.2-.19,1.2-1.47v-6.79c0-1.28-.08-1.34-1.2-1.47v-.45h5.06v.45c-1.12.13-1.2.19-1.2,1.47v7H37l4.23-8.94h4.13v.45c-1.12.13-1.2.19-1.2,1.47v6.79c0,1.28.08,1.35,1.2,1.47v.45H40.29V141c1.12-.12,1.2-.19,1.2-1.47v-7.2h-.06l-4.5,9.12Z"/><path class="b" d="M47.08,131.27v-.45h5.75c1.54,0,3.51.32,3.51,2.37,0,1.46-1.24,2.2-2.47,2.42v.1c1.52.09,3,.81,3,2.59,0,2.21-1.64,3.15-4.34,3.15h-5.4V141c1.12-.12,1.2-.19,1.2-1.47v-6.79C48.28,131.46,48.2,131.4,47.08,131.27Zm3.86,1.47v2.71h.71a1.84,1.84,0,0,0,2-2c0-1.25-.48-2-1.71-2C51.42,131.51,50.94,131.56,50.94,132.74Zm0,3.41v3.38c0,.63.11,1.23,1,1.23a2.08,2.08,0,0,0,2.06-2.3,2.05,2.05,0,0,0-2.32-2.31Z"/><path class="b" d="M58,131.27v-.45h8.1v2.53h-.49c-.38-1.23-.56-1.77-2.4-1.77h-.8c-.46,0-.56.25-.56.65v3.25h1.57c1,0,1.19-.29,1.38-1.28h.45v3.44H64.8c-.18-1-.45-1.36-1.38-1.36H61.85v3.25c0,1,.16,1.19,1.67,1.19,1.36,0,1.9-.26,2.19-.93l.5-1.17.49,0-.35,2.78H58V141c1.12-.12,1.2-.19,1.2-1.47v-6.79C59.2,131.46,59.12,131.4,58,131.27Z"/><path class="b" d="M68.22,141.45V141c1.12-.12,1.2-.19,1.2-1.47v-6.79c0-1.28-.08-1.34-1.2-1.47v-.45H74c1.54,0,3.51.45,3.51,3.14,0,2.15-1.46,3.33-4.07,3.33a6.92,6.92,0,0,1-1.33-.16v2.4c0,1.28.08,1.35,1.2,1.47v.45Zm3.85-5.36c0,.32.39.48.71.48,1.25,0,2-.85,2-2.61,0-1.25-.58-2.45-2-2.45-.38,0-.72.21-.72.59Z"/><path class="b" d="M79,136.2c0-3.6,2.21-5.63,6-5.63a7.72,7.72,0,0,1,3.06.59v2.63h-.52c-.4-1.33-.75-2.52-2.67-2.52-2.61,0-3,3.2-3,4.68,0,2.08.63,5.05,3.24,5.05,1.76,0,2.29-1.21,2.78-2.57l.52,0-.34,2.62a8,8,0,0,1-3.3.61C81,141.71,79,139.68,79,136.2Z"/><path class="b" d="M89.89,141.45V141c1.12-.12,1.2-.19,1.2-1.47v-6.79c0-1.28-.08-1.34-1.2-1.47v-.45H95v.45c-1.12.13-1.2.19-1.2,1.47v7h.06L98,130.82h4.13v.45c-1.12.13-1.2.19-1.2,1.47v6.79c0,1.28.08,1.35,1.2,1.47v.45H97.11V141c1.12-.12,1.2-.19,1.2-1.47v-7.2h-.06l-4.5,9.12Z"/><path class="b" d="M105.91,141.45V141c1.12-.12,1.2-.19,1.2-1.47v-7.95h-1.23c-1,0-1.3,1-1.62,2h-.51v-3.21h.51a.58.58,0,0,0,.48.4h7.4a.58.58,0,0,0,.48-.4h.51v3.21h-.51c-.4-1.3-.66-2-2.31-2h-.54v7.95c0,1.28.08,1.35,1.2,1.47v.45Z"/><path class="b" d="M114.7,131.27v-.45h8.1v2.53h-.48c-.39-1.23-.56-1.77-2.4-1.77h-.8c-.47,0-.56.25-.56.65v3.25h1.57c1,0,1.18-.29,1.37-1.28H122v3.44h-.45c-.17-1-.45-1.36-1.37-1.36h-1.57v3.25c0,1,.16,1.19,1.66,1.19s1.91-.26,2.2-.93l.49-1.17.5,0-.35,2.78H114.7V141c1.12-.12,1.2-.19,1.2-1.47v-6.79C115.9,131.46,115.82,131.4,114.7,131.27Z"/><path class="b" d="M126.75,141.45V141c1.12-.12,1.2-.19,1.2-1.47v-7.95h-1.23c-1,0-1.3,1-1.62,2h-.51v-3.21h.51a.57.57,0,0,0,.48.4H133a.57.57,0,0,0,.48-.4H134v3.21h-.52c-.4-1.3-.65-2-2.3-2h-.55v7.95c0,1.28.08,1.35,1.21,1.47v.45Z"/><path class="b" d="M35.33,158.45V158c1.12-.12,1.2-.19,1.2-1.47v-7.27c0-.59-.08-.68-1.2-.68H33.76c-1.1,0-1.2.09-1.2.68v7.27c0,1.28.08,1.35,1.2,1.47v.45H28.7V158c1.12-.12,1.2-.19,1.2-1.47v-6.79c0-1.28-.08-1.34-1.2-1.47v-.45H40.39v.45c-1.12.13-1.2.19-1.2,1.47v6.79c0,1.28.08,1.35,1.2,1.47v.45Z"/><path class="b" d="M42,158.45V158c.73-.25.91-.4,1.24-1.32l3-9H48.5l2.94,8.73c.23.65.64,1.52,1.28,1.61v.45H47.86V158c.65-.14,1-.36,1-.78a1.34,1.34,0,0,0-.08-.4l-2.11-6.69h-.07l-2.29,7.09a1.1,1.1,0,0,0,0,.16c0,.4.53.56,1.07.62v.45Z"/><path class="b" d="M53.3,153.14a5.39,5.39,0,0,1,5.49-5.57c3.44,0,5.49,1.86,5.49,5.57a5.49,5.49,0,0,1-5.49,5.57C55.19,158.71,53.3,156.74,53.3,153.14Zm2.84,0c0,3.33.72,4.86,2.65,4.86,1.65,0,2.66-1.5,2.66-4.86s-.74-4.87-2.66-4.87C57.14,148.27,56.14,149.7,56.14,153.14Z"/><path class="b" d="M65.42,148.27v-.45h5.74c1.54,0,3.51.32,3.51,2.37,0,1.46-1.23,2.2-2.47,2.42v.1c1.53.09,3,.81,3,2.59,0,2.21-1.63,3.15-4.34,3.15H65.42V158c1.12-.12,1.2-.19,1.2-1.47v-6.79C66.62,148.46,66.54,148.4,65.42,148.27Zm3.85,1.47v2.71H70a1.84,1.84,0,0,0,2-2c0-1.25-.48-2-1.71-2C69.76,148.51,69.27,148.56,69.27,149.74Zm0,3.41v3.38c0,.63.12,1.23,1,1.23a2.08,2.08,0,0,0,2.06-2.3A2.05,2.05,0,0,0,70,153.15Z"/><path class="b" d="M76.05,158.13l.71-.25a2,2,0,0,0,1.44-1.44l3-8.78H83.4l2.95,8.78c.25.78.51,1.24,1,1.48l.46.21v3.2h-.58c-.47-1.85-.76-2.88-2.3-2.88H78.78c-1.46,0-1.81,1-2.15,2.88h-.58Zm3.17-1a.61.61,0,0,0,0,.22.54.54,0,0,0,.59.55H83c.55,0,.72-.26.72-.63a3.22,3.22,0,0,0-.19-.91l-2-6.21H81.5Z"/><path class="b" d="M89.43,158.45V158c1.12-.12,1.2-.19,1.2-1.47v-6.79c0-1.28-.08-1.34-1.2-1.47v-.45h5.06v.45c-1.12.13-1.2.19-1.2,1.47v7h.06l4.23-8.94h4.13v.45c-1.12.13-1.2.19-1.2,1.47v6.79c0,1.28.08,1.35,1.2,1.47v.45H96.65V158c1.12-.12,1.2-.19,1.2-1.47v-7.2h-.06l-4.5,9.12Z"/><path class="b" d="M103.44,148.27v-.45h5.75c1.54,0,3.51.32,3.51,2.37,0,1.46-1.24,2.2-2.47,2.42v.1c1.52.09,3,.81,3,2.59,0,2.21-1.64,3.15-4.34,3.15h-5.4V158c1.13-.12,1.21-.19,1.21-1.47v-6.79C104.65,148.46,104.57,148.4,103.44,148.27Zm3.86,1.47v2.71H108a1.84,1.84,0,0,0,2-2c0-1.25-.48-2-1.72-2C107.78,148.51,107.3,148.56,107.3,149.74Zm0,3.41v3.38c0,.63.11,1.23,1,1.23a2.08,2.08,0,0,0,2.06-2.3,2.05,2.05,0,0,0-2.32-2.31Z"/><use width="141.73" height="113.4" xlink:href="#a"/></svg>